<svg width="97" height="34" viewBox="0 0 97 34" fill="none" xmlns="http://www.w3.org/2000/svg">
<path fill-rule="evenodd" clip-rule="evenodd" d="M0 17V34H8.45372C14.0422 34 16.9074 33.9756 16.9074 33.928C16.9074 33.886 17.1442 33.8559 17.4758 33.8559C17.8073 33.8559 18.0441 33.8259 18.0441 33.7839C18.0441 33.7443 18.1719 33.7119 18.3282 33.7119C18.4845 33.7119 18.6124 33.6794 18.6124 33.6398C18.6124 33.6002 18.7083 33.5678 18.8255 33.5678C18.9427 33.5678 19.0386 33.5354 19.0386 33.4958C19.0386 33.4561 19.1345 33.4237 19.2517 33.4237C19.369 33.4237 19.4649 33.3913 19.4649 33.3517C19.4649 33.3121 19.5288 33.2797 19.6069 33.2797C19.6851 33.2797 19.749 33.2472 19.749 33.2076C19.749 33.168 19.813 33.1356 19.8911 33.1356C19.9692 33.1356 20.0332 33.1032 20.0332 33.0636C20.0332 33.0239 20.0971 32.9915 20.1753 32.9915C20.2534 32.9915 20.3173 32.9591 20.3173 32.9195C20.3173 32.8799 20.3813 32.8475 20.4594 32.8475C20.5376 32.8475 20.6015 32.815 20.6015 32.7754C20.6015 32.7358 20.6654 32.7034 20.7436 32.7034C20.8217 32.7034 20.8857 32.671 20.8857 32.6314C20.8857 32.5917 20.9361 32.5593 20.9978 32.5593C21.0595 32.5593 21.2328 32.4297 21.3829 32.2712C21.5331 32.1127 21.691 31.9831 21.7337 31.9831C21.836 31.9831 22.8748 30.9284 22.8748 30.8245C22.8748 30.7804 22.9707 30.6534 23.0879 30.5424C23.2051 30.4314 23.301 30.2958 23.301 30.2413C23.301 30.1867 23.3649 30.0953 23.4431 30.0381C23.5212 29.981 23.5852 29.8766 23.5852 29.8061C23.5852 29.7357 23.6171 29.678 23.6562 29.678C23.6953 29.678 23.7272 29.6131 23.7272 29.5339C23.7272 29.4547 23.7592 29.3898 23.7983 29.3898C23.8374 29.3898 23.8693 29.325 23.8693 29.2458C23.8693 29.1665 23.9013 29.1017 23.9404 29.1017C23.9794 29.1017 24.0114 29.0369 24.0114 28.9576C24.0114 28.8784 24.0434 28.8136 24.0824 28.8136C24.1215 28.8136 24.1535 28.7163 24.1535 28.5975C24.1535 28.4786 24.1855 28.3814 24.2245 28.3814C24.2636 28.3814 24.2956 28.3165 24.2956 28.2373C24.2956 28.1581 24.3138 28.0932 24.3361 28.0932C24.4138 28.0932 24.5797 28.2997 24.5797 28.3963C24.5797 28.4499 24.6437 28.5403 24.7218 28.5975C24.7999 28.6546 24.8639 28.7518 24.8639 28.8136C24.8639 28.8753 24.9278 28.9725 25.006 29.0297C25.0841 29.0868 25.148 29.1782 25.148 29.2328C25.148 29.2873 25.2439 29.4229 25.3612 29.5339C25.4784 29.6449 25.5743 29.7718 25.5743 29.8158C25.5743 29.9201 27.0404 31.4068 27.1433 31.4068C27.1867 31.4068 27.3118 31.504 27.4213 31.6229C27.5308 31.7417 27.6645 31.839 27.7183 31.839C27.7721 31.839 27.8623 31.9038 27.9186 31.9831C27.9749 32.0623 28.0779 32.1271 28.1474 32.1271C28.2169 32.1271 28.2738 32.1595 28.2738 32.1992C28.2738 32.2388 28.3307 32.2712 28.4002 32.2712C28.4697 32.2712 28.5726 32.336 28.629 32.4153C28.6853 32.4945 28.7883 32.5593 28.8578 32.5593C28.9273 32.5593 28.9842 32.5917 28.9842 32.6314C28.9842 32.671 29.0481 32.7034 29.1263 32.7034C29.2044 32.7034 29.2683 32.7358 29.2683 32.7754C29.2683 32.815 29.3642 32.8475 29.4815 32.8475C29.5987 32.8475 29.6946 32.8799 29.6946 32.9195C29.6946 32.9591 29.7585 32.9915 29.8367 32.9915C29.9148 32.9915 29.9787 33.0239 29.9787 33.0636C29.9787 33.1032 30.0427 33.1356 30.1208 33.1356C30.199 33.1356 30.2629 33.168 30.2629 33.2076C30.2629 33.2472 30.3588 33.2797 30.476 33.2797C30.5932 33.2797 30.6891 33.3121 30.6891 33.3517C30.6891 33.3913 30.785 33.4237 30.9023 33.4237C31.0195 33.4237 31.1154 33.4561 31.1154 33.4958C31.1154 33.5354 31.2432 33.5678 31.3995 33.5678C31.5558 33.5678 31.6837 33.6002 31.6837 33.6398C31.6837 33.6799 31.8732 33.7119 32.1099 33.7119C32.3467 33.7119 32.5362 33.7438 32.5362 33.7839C32.5362 33.8266 32.7967 33.8559 33.1755 33.8559C33.5544 33.8559 33.8149 33.8852 33.8149 33.928C33.8149 33.9712 34.099 34 34.5253 34C34.9515 34 35.2357 33.9712 35.2357 33.928C35.2357 33.8852 35.4962 33.8559 35.875 33.8559C36.2539 33.8559 36.5144 33.8266 36.5144 33.7839C36.5144 33.7443 36.6742 33.7119 36.8696 33.7119C37.0649 33.7119 37.2248 33.6794 37.2248 33.6398C37.2248 33.6002 37.3527 33.5678 37.5089 33.5678C37.6652 33.5678 37.7931 33.5354 37.7931 33.4958C37.7931 33.4561 37.921 33.4237 38.0773 33.4237C38.2335 33.4237 38.3614 33.3913 38.3614 33.3517C38.3614 33.3121 38.4573 33.2797 38.5745 33.2797C38.6918 33.2797 38.7877 33.2472 38.7877 33.2076C38.7877 33.168 38.8516 33.1356 38.9297 33.1356C39.0079 33.1356 39.0718 33.1032 39.0718 33.0636C39.0718 33.0239 39.1677 32.9915 39.2849 32.9915C39.4021 32.9915 39.4981 32.9591 39.4981 32.9195C39.4981 32.8799 39.562 32.8475 39.6401 32.8475C39.7183 32.8475 39.7822 32.815 39.7822 32.7754C39.7822 32.7358 39.8461 32.7034 39.9243 32.7034C40.0024 32.7034 40.0664 32.671 40.0664 32.6314C40.0664 32.5917 40.1233 32.5593 40.1927 32.5593C40.2623 32.5593 40.3652 32.4945 40.4216 32.4153C40.4779 32.336 40.5808 32.2712 40.6504 32.2712C40.7199 32.2712 40.7768 32.2388 40.7768 32.1992C40.7768 32.1595 40.8337 32.1271 40.9031 32.1271C40.9727 32.1271 41.0756 32.0623 41.132 31.9831C41.1883 31.9038 41.2842 31.839 41.3451 31.839C41.406 31.839 41.5019 31.7742 41.5582 31.6949C41.6145 31.6157 41.7018 31.5508 41.7522 31.5508C41.8639 31.5508 43.4763 29.9281 43.4763 29.8157C43.4763 29.7718 43.5722 29.6449 43.6894 29.5339C43.8066 29.4229 43.9025 29.2873 43.9025 29.2328C43.9025 29.1782 43.9664 29.0868 44.0446 29.0297C44.1227 28.9725 44.1867 28.8753 44.1867 28.8136C44.1867 28.7518 44.2506 28.6546 44.3287 28.5975C44.4069 28.5403 44.4708 28.436 44.4708 28.3654C44.4708 28.295 44.5028 28.2373 44.5419 28.2373C44.5809 28.2373 44.6129 28.1725 44.6129 28.0932C44.6129 28.014 44.6449 27.9492 44.6839 27.9492C44.723 27.9492 44.755 27.8843 44.755 27.8051C44.755 27.7258 44.787 27.661 44.826 27.661C44.8651 27.661 44.8971 27.5989 44.8971 27.5229C44.8971 27.447 44.937 27.3684 44.9859 27.3483C45.0531 27.3207 45.0492 27.2939 44.9702 27.2382C44.9127 27.1978 44.8905 27.1395 44.9207 27.1087C44.9511 27.078 45.006 27.1006 45.043 27.1589C45.1022 27.2522 45.1182 27.2522 45.1774 27.1589C45.2143 27.1006 45.2693 27.078 45.2996 27.1087C45.3299 27.1395 45.3077 27.1978 45.2502 27.2382C45.1711 27.2939 45.1673 27.3207 45.2345 27.3483C45.2834 27.3684 45.3233 27.447 45.3233 27.5229C45.3233 27.5989 45.3553 27.661 45.3943 27.661C45.4334 27.661 45.4654 27.7258 45.4654 27.8051C45.4654 27.8843 45.4974 27.9492 45.5364 27.9492C45.5755 27.9492 45.6075 28.014 45.6075 28.0932C45.6075 28.1725 45.6394 28.2373 45.6785 28.2373C45.7176 28.2373 45.7495 28.295 45.7495 28.3654C45.7495 28.436 45.8135 28.5403 45.8916 28.5975C45.9698 28.6546 46.0337 28.7518 46.0337 28.8136C46.0337 28.8753 46.0976 28.9725 46.1758 29.0297C46.2539 29.0868 46.3179 29.1782 46.3179 29.2328C46.3179 29.2873 46.4138 29.4229 46.531 29.5339C46.6482 29.6449 46.7441 29.7718 46.7441 29.8157C46.7441 29.9281 48.3565 31.5508 48.4682 31.5508C48.5185 31.5508 48.6058 31.6157 48.6622 31.6949C48.7185 31.7742 48.8144 31.839 48.8753 31.839C48.9362 31.839 49.0321 31.9038 49.0884 31.9831C49.1447 32.0623 49.2406 32.1271 49.3015 32.1271C49.3624 32.1271 49.4583 32.1919 49.5146 32.2712C49.571 32.3504 49.6739 32.4153 49.7435 32.4153C49.8129 32.4153 49.8698 32.4477 49.8698 32.4873C49.8698 32.5269 49.9338 32.5593 50.0119 32.5593C50.0901 32.5593 50.154 32.5917 50.154 32.6314C50.154 32.671 50.2179 32.7034 50.2961 32.7034C50.3742 32.7034 50.4382 32.7358 50.4382 32.7754C50.4382 32.815 50.5021 32.8475 50.5802 32.8475C50.6584 32.8475 50.7223 32.8799 50.7223 32.9195C50.7223 32.9591 50.8182 32.9915 50.9354 32.9915C51.0527 32.9915 51.1486 33.0239 51.1486 33.0636C51.1486 33.1032 51.2125 33.1356 51.2906 33.1356C51.3688 33.1356 51.4327 33.168 51.4327 33.2076C51.4327 33.2472 51.5286 33.2797 51.6458 33.2797C51.763 33.2797 51.859 33.3121 51.859 33.3517C51.859 33.3913 51.9549 33.4237 52.0721 33.4237C52.1893 33.4237 52.2852 33.4561 52.2852 33.4958C52.2852 33.5354 52.4131 33.5678 52.5693 33.5678C52.7256 33.5678 52.8535 33.6002 52.8535 33.6398C52.8535 33.6799 53.043 33.7119 53.2797 33.7119C53.5165 33.7119 53.706 33.7438 53.706 33.7839C53.706 33.8266 53.9665 33.8559 54.3453 33.8559C54.7242 33.8559 54.9847 33.8852 54.9847 33.928C54.9847 33.9707 55.2452 34 55.6241 34C56.0029 34 56.2634 33.9707 56.2634 33.928C56.2634 33.8847 56.5476 33.8559 56.9738 33.8559C57.4 33.8559 57.6842 33.8271 57.6842 33.7839C57.6842 33.7443 57.844 33.7119 58.0394 33.7119C58.2348 33.7119 58.3946 33.6794 58.3946 33.6398C58.3946 33.6002 58.5544 33.5678 58.7498 33.5678C58.9452 33.5678 59.105 33.5354 59.105 33.4958C59.105 33.4561 59.2009 33.4237 59.3181 33.4237C59.4353 33.4237 59.5312 33.3913 59.5312 33.3517C59.5312 33.3121 59.6271 33.2797 59.7444 33.2797C59.8616 33.2797 59.9575 33.2472 59.9575 33.2076C59.9575 33.168 60.0214 33.1356 60.0996 33.1356C60.1777 33.1356 60.2416 33.1032 60.2416 33.0636C60.2416 33.0239 60.3056 32.9915 60.3837 32.9915C60.4619 32.9915 60.5258 32.9591 60.5258 32.9195C60.5258 32.8799 60.6217 32.8475 60.7389 32.8475C60.8561 32.8475 60.952 32.815 60.952 32.7754C60.952 32.7358 61.016 32.7034 61.0941 32.7034C61.1723 32.7034 61.2362 32.671 61.2362 32.6314C61.2362 32.5917 61.2931 32.5593 61.3626 32.5593C61.4321 32.5593 61.5351 32.4945 61.5914 32.4153C61.6477 32.336 61.7507 32.2712 61.8202 32.2712C61.8897 32.2712 61.9466 32.2388 61.9466 32.1992C61.9466 32.1595 62.0035 32.1271 62.073 32.1271C62.1425 32.1271 62.2454 32.0623 62.3018 31.9831C62.3581 31.9038 62.4483 31.839 62.5021 31.839C62.5559 31.839 62.6896 31.7417 62.7991 31.6229C62.9085 31.504 63.0336 31.4068 63.077 31.4068C63.18 31.4068 64.6461 29.9201 64.6461 29.8158C64.6461 29.7718 64.742 29.6449 64.8592 29.5339C64.9764 29.4229 65.0723 29.2873 65.0723 29.2328C65.0723 29.1782 65.1363 29.0868 65.2144 29.0297C65.2926 28.9725 65.3565 28.8753 65.3565 28.8136C65.3565 28.7518 65.4204 28.6546 65.4986 28.5975C65.5767 28.5403 65.6406 28.436 65.6406 28.3654C65.6406 28.295 65.6726 28.2373 65.7117 28.2373C65.7508 28.2373 65.7827 28.1725 65.7827 28.0932C65.7827 28.014 65.8147 27.9492 65.8538 27.9492C65.8928 27.9492 65.9248 27.8519 65.9248 27.7331C65.9248 27.6142 65.9568 27.5169 65.9958 27.5169C66.0349 27.5169 66.0669 27.4521 66.0669 27.3729C66.0669 27.2936 66.0989 27.2288 66.1379 27.2288C66.177 27.2288 66.209 27.1316 66.209 27.0127C66.209 26.8939 66.2409 26.7966 66.28 26.7966C66.3191 26.7966 66.351 26.7318 66.351 26.6525C66.351 26.5733 66.383 26.5085 66.4221 26.5085C66.4612 26.5085 66.4931 26.3788 66.4931 26.2203C66.4931 26.0619 66.5251 25.9322 66.5642 25.9322C66.6032 25.9322 66.6352 25.835 66.6352 25.7161C66.6352 25.5972 66.6672 25.5 66.7062 25.5C66.7453 25.5 66.7773 25.3703 66.7773 25.2119C66.7773 25.0534 66.8092 24.9237 66.8483 24.9237C66.8889 24.9237 66.9194 24.7076 66.9194 24.4195C66.9194 24.1314 66.9498 23.9153 66.9904 23.9153C67.0344 23.9153 67.0614 23.5311 67.0614 22.9068C67.0614 22.2825 67.0344 21.8983 66.9904 21.8983C66.9513 21.8983 66.9194 21.8659 66.9194 21.8263C66.9194 21.7867 67.0472 21.7542 67.2035 21.7542C67.4124 21.7542 67.4877 21.7837 67.4877 21.8655C67.4877 21.9948 67.7981 22.3305 67.9177 22.3305C67.9624 22.3305 68.0886 22.4278 68.1981 22.5466C68.3075 22.6655 68.4412 22.7627 68.495 22.7627C68.5489 22.7627 68.639 22.8275 68.6954 22.9068C68.7517 22.986 68.8546 23.0508 68.9242 23.0508C68.9936 23.0508 69.0506 23.0833 69.0506 23.1229C69.0506 23.1625 69.1145 23.1949 69.1926 23.1949C69.2708 23.1949 69.3347 23.2273 69.3347 23.2669C69.3347 23.3066 69.3986 23.339 69.4768 23.339C69.5549 23.339 69.6189 23.3714 69.6189 23.411C69.6189 23.4506 69.6828 23.4831 69.7609 23.4831C69.8391 23.4831 69.903 23.5155 69.903 23.5551C69.903 23.5947 69.9989 23.6271 70.1161 23.6271C70.2334 23.6271 70.3293 23.6595 70.3293 23.6992C70.3293 23.7388 70.3932 23.7712 70.4713 23.7712C70.5495 23.7712 70.6134 23.8036 70.6134 23.8432C70.6134 23.8828 70.7413 23.9153 70.8976 23.9153C71.0539 23.9153 71.1817 23.9477 71.1817 23.9873C71.1817 24.0269 71.3096 24.0593 71.4659 24.0593C71.6222 24.0593 71.7501 24.0917 71.7501 24.1314C71.7501 24.171 71.9099 24.2034 72.1053 24.2034C72.3006 24.2034 72.4605 24.2358 72.4605 24.2754C72.4605 24.315 72.5883 24.3475 72.7446 24.3475C72.9009 24.3475 73.0288 24.3799 73.0288 24.4195C73.0288 24.4591 73.1886 24.4915 73.384 24.4915C73.5793 24.4915 73.7392 24.5239 73.7392 24.5636C73.7392 24.6032 73.899 24.6356 74.0944 24.6356C74.2897 24.6356 74.4496 24.668 74.4496 24.7076C74.4496 24.7472 74.6094 24.7797 74.8048 24.7797C75.0001 24.7797 75.16 24.8121 75.16 24.8517C75.16 24.8913 75.2878 24.9237 75.4441 24.9237C75.6004 24.9237 75.7283 24.9561 75.7283 24.9958C75.7283 25.0354 75.8562 25.0678 76.0124 25.0678C76.1687 25.0678 76.2966 25.1002 76.2966 25.1398C76.2966 25.1794 76.4245 25.2119 76.5808 25.2119C76.737 25.2119 76.8649 25.2443 76.8649 25.2839C76.8649 25.3235 76.9608 25.3559 77.078 25.3559C77.1952 25.3559 77.2912 25.3883 77.2912 25.428C77.2912 25.4676 77.3551 25.5 77.4332 25.5C77.5114 25.5 77.5753 25.5324 77.5753 25.572C77.5753 25.6117 77.6392 25.6441 77.7174 25.6441C77.7955 25.6441 77.8595 25.6765 77.8595 25.7161C77.8595 25.8205 78.1259 25.8047 78.1635 25.6981C78.1809 25.6486 78.2226 25.6341 78.2562 25.666C78.2897 25.6979 78.2726 25.7518 78.2182 25.7859C78.1414 25.834 78.1855 25.9122 78.4156 26.1365C78.5786 26.2953 78.7119 26.4763 78.7119 26.5389C78.7119 26.6014 78.7439 26.6525 78.783 26.6525C78.8235 26.6525 78.854 26.8686 78.854 27.1568C78.854 27.4449 78.8235 27.661 78.783 27.661C78.7439 27.661 78.7119 27.7511 78.7119 27.8612C78.7119 27.9788 78.6533 28.1042 78.5699 28.1653C78.4917 28.2224 78.4278 28.3121 78.4278 28.3645C78.4278 28.4882 78.1069 28.8136 77.9849 28.8136C77.9332 28.8136 77.8448 28.8784 77.7884 28.9576C77.7321 29.0369 77.6292 29.1017 77.5596 29.1017C77.4901 29.1017 77.4332 29.1341 77.4332 29.1737C77.4332 29.2133 77.3373 29.2458 77.2201 29.2458C77.1029 29.2458 77.007 29.2782 77.007 29.3178C77.007 29.3574 76.8791 29.3898 76.7228 29.3898C76.5665 29.3898 76.4387 29.4222 76.4387 29.4619C76.4387 29.5074 75.9414 29.5339 75.0889 29.5339C74.2364 29.5339 73.7392 29.5074 73.7392 29.4619C73.7392 29.4222 73.5793 29.3898 73.384 29.3898C73.1886 29.3898 73.0288 29.3574 73.0288 29.3178C73.0288 29.2782 72.9009 29.2458 72.7446 29.2458C72.5883 29.2458 72.4605 29.2133 72.4605 29.1737C72.4605 29.1341 72.3646 29.1017 72.2473 29.1017C72.1301 29.1017 72.0342 29.0693 72.0342 29.0297C72.0342 28.99 71.9383 28.9576 71.8211 28.9576C71.7039 28.9576 71.608 28.9252 71.608 28.8856C71.608 28.846 71.5121 28.8136 71.3949 28.8136C71.2776 28.8136 71.1817 28.7811 71.1817 28.7415C71.1817 28.7019 71.1178 28.6695 71.0397 28.6695C70.9615 28.6695 70.8976 28.6371 70.8976 28.5975C70.8976 28.5578 70.8336 28.5254 70.7555 28.5254C70.6774 28.5254 70.6134 28.493 70.6134 28.4534C70.6134 28.4138 70.5495 28.3814 70.4713 28.3814C70.3932 28.3814 70.3293 28.3489 70.3293 28.3093C70.3293 28.2697 70.2653 28.2373 70.1872 28.2373C70.109 28.2373 70.0451 28.2049 70.0451 28.1653C70.0451 28.1256 69.9812 28.0932 69.903 28.0932C69.8249 28.0932 69.7609 28.0608 69.7609 28.0212C69.7609 27.9816 69.704 27.9492 69.6346 27.9492C69.565 27.9492 69.4621 27.8843 69.4057 27.8051C69.3494 27.7258 69.2465 27.661 69.1769 27.661C69.1075 27.661 69.0506 27.6286 69.0506 27.589C69.0506 27.5494 68.9936 27.5169 68.9242 27.5169C68.8546 27.5169 68.7517 27.4521 68.6954 27.3729C68.639 27.2936 68.5361 27.2288 68.4665 27.2288C68.3664 27.2288 68.3402 27.2887 68.3402 27.5169C68.3402 27.6754 68.3082 27.8051 68.2691 27.8051C68.23 27.8051 68.1981 27.8699 68.1981 27.9492C68.1981 28.0284 68.1661 28.0932 68.127 28.0932C68.088 28.0932 68.056 28.1581 68.056 28.2373C68.056 28.3165 68.024 28.3814 67.985 28.3814C67.9459 28.3814 67.9139 28.4786 67.9139 28.5975C67.9139 28.7163 67.8819 28.8136 67.8429 28.8136C67.8038 28.8136 67.7718 28.8713 67.7718 28.9417C67.7718 29.0122 67.7079 29.1166 67.6298 29.1737C67.5516 29.2309 67.4877 29.3352 67.4877 29.4057C67.4877 29.4762 67.4557 29.5339 67.4166 29.5339C67.3776 29.5339 67.3456 29.5916 67.3456 29.662C67.3456 29.7326 67.2817 29.8369 67.2035 29.8941C67.1254 29.9512 67.0614 30.0426 67.0614 30.0972C67.0614 30.1517 66.9655 30.2873 66.8483 30.3983C66.7311 30.5093 66.6352 30.6383 66.6352 30.685C66.6352 30.7316 66.5073 30.8943 66.351 31.0466C66.0279 31.3615 66.01 31.4068 66.209 31.4068C66.2871 31.4068 66.351 31.4392 66.351 31.4788C66.351 31.5184 66.408 31.5508 66.4774 31.5508C66.547 31.5508 66.6499 31.6157 66.7062 31.6949C66.7626 31.7742 66.8655 31.839 66.9351 31.839C67.0045 31.839 67.0614 31.8714 67.0614 31.911C67.0614 31.9506 67.1254 31.9831 67.2035 31.9831C67.2817 31.9831 67.3456 32.0155 67.3456 32.0551C67.3456 32.0947 67.4095 32.1271 67.4877 32.1271C67.5658 32.1271 67.6298 32.1595 67.6298 32.1992C67.6298 32.2388 67.6937 32.2712 67.7718 32.2712C67.85 32.2712 67.9139 32.3036 67.9139 32.3432C67.9139 32.3828 67.9779 32.4153 68.056 32.4153C68.1341 32.4153 68.1981 32.4477 68.1981 32.4873C68.1981 32.5269 68.262 32.5593 68.3402 32.5593C68.4183 32.5593 68.4822 32.5917 68.4822 32.6314C68.4822 32.671 68.5462 32.7034 68.6243 32.7034C68.7025 32.7034 68.7664 32.7358 68.7664 32.7754C68.7664 32.815 68.8623 32.8475 68.9795 32.8475C69.0967 32.8475 69.1926 32.8799 69.1926 32.9195C69.1926 32.9591 69.2885 32.9915 69.4057 32.9915C69.523 32.9915 69.6189 33.0239 69.6189 33.0636C69.6189 33.1032 69.7148 33.1356 69.832 33.1356C69.9492 33.1356 70.0451 33.168 70.0451 33.2076C70.0451 33.2472 70.141 33.2797 70.2582 33.2797C70.3754 33.2797 70.4713 33.3121 70.4713 33.3517C70.4713 33.3913 70.5992 33.4237 70.7555 33.4237C70.9118 33.4237 71.0397 33.4561 71.0397 33.4958C71.0397 33.5354 71.1995 33.5678 71.3949 33.5678C71.5902 33.5678 71.7501 33.6002 71.7501 33.6398C71.7501 33.6799 71.9395 33.7119 72.1763 33.7119C72.4131 33.7119 72.6025 33.7438 72.6025 33.7839C72.6025 33.8271 72.8867 33.8559 73.3129 33.8559C73.7392 33.8559 74.0233 33.8847 74.0233 33.928C74.0233 33.9716 74.3311 34 74.8048 34C75.2784 34 75.5862 33.9716 75.5862 33.928C75.5862 33.8847 75.8704 33.8559 76.2966 33.8559C76.7228 33.8559 77.007 33.8271 77.007 33.7839C77.007 33.7438 77.1965 33.7119 77.4332 33.7119C77.67 33.7119 77.8595 33.6799 77.8595 33.6398C77.8595 33.6002 77.9873 33.5678 78.1436 33.5678C78.2999 33.5678 78.4278 33.5354 78.4278 33.4958C78.4278 33.4561 78.5557 33.4237 78.7119 33.4237C78.8682 33.4237 78.9961 33.3913 78.9961 33.3517C78.9961 33.3121 79.092 33.2797 79.2092 33.2797C79.3264 33.2797 79.4223 33.2472 79.4223 33.2076C79.4223 33.168 79.4863 33.1356 79.5644 33.1356C79.6426 33.1356 79.7065 33.1032 79.7065 33.0636C79.7065 33.0239 79.7704 32.9915 79.8486 32.9915C79.9267 32.9915 79.9907 32.9591 79.9907 32.9195C79.9907 32.8799 80.0866 32.8475 80.2038 32.8475C80.321 32.8475 80.4169 32.815 80.4169 32.7754C80.4169 32.7358 80.4738 32.7034 80.5433 32.7034C80.6128 32.7034 80.7158 32.6386 80.7721 32.5593C80.8284 32.4801 80.9314 32.4153 81.0009 32.4153C81.0704 32.4153 81.1273 32.3828 81.1273 32.3432C81.1273 32.3036 81.1842 32.2712 81.2537 32.2712C81.3232 32.2712 81.4262 32.2064 81.4825 32.1271C81.5388 32.0479 81.6263 31.9831 81.6768 31.9831C81.7966 31.9831 82.9743 30.7889 82.9743 30.6674C82.9743 30.6161 83.0383 30.5275 83.1164 30.4703C83.1945 30.4132 83.2585 30.3088 83.2585 30.2383C83.2585 30.1679 83.2905 30.1102 83.3295 30.1102C83.3686 30.1102 83.4006 30.0453 83.4006 29.9661C83.4006 29.8869 83.4325 29.822 83.4716 29.822C83.5107 29.822 83.5426 29.7572 83.5426 29.678C83.5426 29.5987 83.5746 29.5339 83.6137 29.5339C83.6528 29.5339 83.6847 29.4691 83.6847 29.3898C83.6847 29.3106 83.7167 29.2458 83.7558 29.2458C83.7948 29.2458 83.8268 29.1485 83.8268 29.0297C83.8268 28.9108 83.8588 28.8136 83.8978 28.8136C83.9369 28.8136 83.9689 28.6839 83.9689 28.5254C83.9689 28.3669 84.0008 28.2373 84.0399 28.2373C84.0847 28.2373 84.111 27.757 84.111 26.9407C84.111 26.1243 84.0847 25.6441 84.0399 25.6441C84.0008 25.6441 83.9689 25.5144 83.9689 25.3559C83.9689 25.1975 83.9369 25.0678 83.8978 25.0678C83.8588 25.0678 83.8268 24.9381 83.8268 24.7797C83.8268 24.6212 83.7948 24.4915 83.7558 24.4915C83.7167 24.4915 83.6847 24.4267 83.6847 24.3475C83.6847 24.2682 83.6528 24.2034 83.6137 24.2034C83.5746 24.2034 83.5426 24.1386 83.5426 24.0593C83.5426 23.9801 83.5107 23.9153 83.4716 23.9153C83.4325 23.9153 83.4006 23.8576 83.4006 23.7871C83.4006 23.7166 83.3366 23.6122 83.2585 23.5551C83.1803 23.498 83.1164 23.4093 83.1164 23.3581C83.1164 23.2366 81.9387 22.0424 81.8189 22.0424C81.7684 22.0424 81.6809 21.9775 81.6246 21.8983C81.5682 21.8191 81.4723 21.7542 81.4115 21.7542C81.3506 21.7542 81.2547 21.6894 81.1983 21.6102C81.142 21.5309 81.0391 21.4661 80.9695 21.4661C80.9 21.4661 80.8431 21.4337 80.8431 21.3941C80.8431 21.3544 80.7792 21.322 80.7011 21.322C80.6229 21.322 80.559 21.2896 80.559 21.25C80.559 21.2104 80.495 21.178 80.4169 21.178C80.3388 21.178 80.2748 21.1456 80.2748 21.1059C80.2748 21.0663 80.2109 21.0339 80.1327 21.0339C80.0546 21.0339 79.9907 21.0015 79.9907 20.9619C79.9907 20.9222 79.9267 20.8898 79.8486 20.8898C79.7704 20.8898 79.7065 20.8574 79.7065 20.8178C79.7065 20.7782 79.6106 20.7458 79.4934 20.7458C79.3762 20.7458 79.2803 20.7133 79.2803 20.6737C79.2803 20.6341 79.1844 20.6017 79.0671 20.6017C78.9499 20.6017 78.854 20.5693 78.854 20.5297C78.854 20.49 78.7581 20.4576 78.6409 20.4576C78.5237 20.4576 78.4278 20.4252 78.4278 20.3856C78.4278 20.3455 78.2383 20.3136 78.0015 20.3136C77.7648 20.3136 77.5753 20.2816 77.5753 20.2415C77.5753 20.2019 77.4155 20.1695 77.2201 20.1695C77.0248 20.1695 76.8649 20.1371 76.8649 20.0975C76.8649 20.0578 76.7051 20.0254 76.5097 20.0254C76.3144 20.0254 76.1545 19.993 76.1545 19.9534C76.1545 19.9138 75.9947 19.8814 75.7993 19.8814C75.604 19.8814 75.4441 19.8489 75.4441 19.8093C75.4441 19.7697 75.3162 19.7373 75.16 19.7373C75.0037 19.7373 74.8758 19.7049 74.8758 19.6653C74.8758 19.6256 74.716 19.5932 74.5206 19.5932C74.3252 19.5932 74.1654 19.5608 74.1654 19.5212C74.1654 19.4816 74.0375 19.4492 73.8812 19.4492C73.725 19.4492 73.5971 19.4167 73.5971 19.3771C73.5971 19.3375 73.4692 19.3051 73.3129 19.3051C73.1566 19.3051 73.0288 19.2727 73.0288 19.2331C73.0288 19.1934 72.9329 19.161 72.8157 19.161C72.6984 19.161 72.6025 19.1286 72.6025 19.089C72.6025 19.0494 72.5386 19.0169 72.4605 19.0169C72.3823 19.0169 72.3184 18.9845 72.3184 18.9449C72.3184 18.9053 72.2615 18.8729 72.192 18.8729C72.1224 18.8729 72.0195 18.8081 71.9632 18.7288C71.9068 18.6496 71.8039 18.5847 71.7344 18.5847C71.6606 18.5847 71.608 18.5314 71.608 18.4566C71.608 18.3861 71.544 18.2817 71.4659 18.2246C71.3448 18.136 71.3238 18.0381 71.3238 17.5604C71.3238 17.2348 71.3536 17 71.3949 17C71.4339 17 71.4659 16.9423 71.4659 16.8719C71.4659 16.8013 71.5298 16.697 71.608 16.6398C71.6861 16.5827 71.7501 16.4783 71.7501 16.4078C71.7501 16.3374 71.8011 16.2797 71.8637 16.2797C71.9261 16.2797 72.0668 16.1824 72.1763 16.0636C72.2858 15.9447 72.4265 15.8475 72.4889 15.8475C72.5515 15.8475 72.6025 15.815 72.6025 15.7754C72.6025 15.7358 72.6984 15.7034 72.8157 15.7034C72.9329 15.7034 73.0288 15.671 73.0288 15.6314C73.0288 15.5917 73.1566 15.5593 73.3129 15.5593C73.4692 15.5593 73.5971 15.5269 73.5971 15.4873C73.5971 15.4398 75.7519 15.4153 79.9196 15.4153H86.2421V21.9703C86.2421 26.2924 86.2664 28.5254 86.3132 28.5254C86.3538 28.5254 86.3842 28.7415 86.3842 29.0297C86.3842 29.3178 86.4147 29.5339 86.4553 29.5339C86.4943 29.5339 86.5263 29.696 86.5263 29.8941C86.5263 30.0922 86.5583 30.2542 86.5973 30.2542C86.6364 30.2542 86.6684 30.3515 86.6684 30.4703C86.6684 30.5892 86.7004 30.6864 86.7394 30.6864C86.7785 30.6864 86.8105 30.7513 86.8105 30.8305C86.8105 30.9097 86.8424 30.9746 86.8815 30.9746C86.9206 30.9746 86.9525 31.0394 86.9525 31.1186C86.9525 31.1979 86.9845 31.2627 87.0236 31.2627C87.0627 31.2627 87.0946 31.3145 87.0946 31.3779C87.0946 31.4412 87.1905 31.5839 87.3077 31.6949C87.425 31.8059 87.5209 31.9333 87.5209 31.9779C87.5209 32.0962 88.1386 32.7034 88.259 32.7034C88.3154 32.7034 88.3758 32.6628 88.3932 32.6133C88.4106 32.5639 88.4523 32.5494 88.4859 32.5812C88.5194 32.6131 88.5026 32.6669 88.4486 32.7008C88.3664 32.7523 88.3688 32.7811 88.4633 32.8769C88.5254 32.94 88.6195 32.9915 88.6723 32.9915C88.7251 32.9915 88.8143 33.0564 88.8706 33.1356C88.927 33.2148 89.0299 33.2797 89.0994 33.2797C89.1689 33.2797 89.2258 33.3121 89.2258 33.3517C89.2258 33.3913 89.3217 33.4237 89.4389 33.4237C89.5561 33.4237 89.6521 33.4561 89.6521 33.4958C89.6521 33.5354 89.748 33.5678 89.8652 33.5678C89.9824 33.5678 90.0783 33.6002 90.0783 33.6398C90.0783 33.6794 90.2062 33.7119 90.3624 33.7119C90.5187 33.7119 90.6466 33.7443 90.6466 33.7839C90.6466 33.8259 90.8834 33.8559 91.2149 33.8559C91.5465 33.8559 91.7832 33.886 91.7832 33.928C91.7832 33.9707 92.0437 34 92.4226 34C92.8015 34 93.062 33.9707 93.062 33.928C93.062 33.886 93.2987 33.8559 93.6303 33.8559C93.9618 33.8559 94.1986 33.8259 94.1986 33.7839C94.1986 33.7443 94.3584 33.7119 94.5538 33.7119C94.7491 33.7119 94.909 33.6794 94.909 33.6398C94.909 33.6002 95.0049 33.5678 95.1221 33.5678C95.2393 33.5678 95.3352 33.5354 95.3352 33.4958C95.3352 33.4561 95.4311 33.4237 95.5483 33.4237C95.6656 33.4237 95.7615 33.3913 95.7615 33.3517C95.7615 33.3121 95.8254 33.2797 95.9035 33.2797C95.9817 33.2797 96.0456 33.2472 96.0456 33.2076C96.0456 33.168 96.1096 33.1356 96.1877 33.1356C96.2658 33.1356 96.3298 33.1032 96.3298 33.0636C96.3298 33.0239 96.3788 32.9915 96.4387 32.9915C96.5865 32.9915 97.0954 32.4699 96.9843 32.4324C96.9363 32.4162 96.8981 32.2782 96.8981 32.1211C96.8981 31.966 96.8661 31.839 96.8271 31.839C96.788 31.839 96.756 31.7417 96.756 31.6229C96.756 31.504 96.7241 31.4068 96.685 31.4068C96.6459 31.4068 96.6139 31.2771 96.6139 31.1186C96.6139 30.9602 96.582 30.8305 96.5429 30.8305C96.5038 30.8305 96.4719 30.7008 96.4719 30.5424C96.4719 30.3839 96.4399 30.2542 96.4008 30.2542C96.3617 30.2542 96.3298 30.1246 96.3298 29.9661C96.3298 29.8076 96.2978 29.678 96.2587 29.678C96.2197 29.678 96.1877 29.5483 96.1877 29.3898C96.1877 29.2314 96.1557 29.1017 96.1167 29.1017C96.0776 29.1017 96.0456 28.9859 96.0456 28.8445C96.0456 28.5802 95.8368 28.2603 95.779 28.436C95.7628 28.4852 95.6884 28.5254 95.6135 28.5254C95.5385 28.5254 95.4773 28.5578 95.4773 28.5975C95.4773 28.6371 95.4134 28.6695 95.3352 28.6695C95.2571 28.6695 95.1931 28.7019 95.1931 28.7415C95.1931 28.7811 95.0653 28.8136 94.909 28.8136C94.7527 28.8136 94.6248 28.846 94.6248 28.8856C94.6248 28.9276 94.3881 28.9576 94.0565 28.9576C93.725 28.9576 93.4882 28.9276 93.4882 28.8856C93.4882 28.846 93.3923 28.8136 93.2751 28.8136C93.1579 28.8136 93.062 28.7811 93.062 28.7415C93.062 28.7019 93.0129 28.6695 92.9531 28.6695C92.8116 28.6695 92.3516 28.203 92.3516 28.0596C92.3516 27.9989 92.3196 27.9492 92.2805 27.9492C92.2414 27.9492 92.2095 27.8843 92.2095 27.8051C92.2095 27.7258 92.1775 27.661 92.1384 27.661C92.0994 27.661 92.0674 27.5638 92.0674 27.4449C92.0674 27.3261 92.0354 27.2288 91.9964 27.2288C91.9495 27.2288 91.9253 25.2139 91.9253 21.328C91.9253 16.6726 91.9066 15.4204 91.8365 15.3951C91.7849 15.3764 91.7741 15.3362 91.8107 15.2991C91.8474 15.2619 91.887 15.2728 91.9054 15.3252C91.9298 15.3943 92.3981 15.4153 93.9203 15.4153H95.9035V13.1822V10.9492H93.9144H91.9253V8.2839C91.9253 6.81801 91.9084 5.61864 91.8877 5.61864C91.867 5.61864 91.4684 6.00763 91.0018 6.48305C90.5352 6.95847 90.12 7.34746 90.0789 7.34746C90.0379 7.34746 89.4303 7.93093 88.7285 8.64407C88.0268 9.3572 87.4185 9.94068 87.3768 9.94068C87.335 9.94068 87.0802 10.1676 86.8105 10.4449L86.3201 10.9492H80.1006C76.0017 10.9492 73.8812 10.9737 73.8812 11.0212C73.8812 11.0639 73.6207 11.0932 73.2419 11.0932C72.863 11.0932 72.6025 11.1225 72.6025 11.1653C72.6025 11.2049 72.4427 11.2373 72.2473 11.2373C72.052 11.2373 71.8921 11.2697 71.8921 11.3093C71.8921 11.3489 71.7962 11.3814 71.679 11.3814C71.5618 11.3814 71.4659 11.4138 71.4659 11.4534C71.4659 11.493 71.338 11.5254 71.1817 11.5254C71.0255 11.5254 70.8976 11.5578 70.8976 11.5975C70.8976 11.6371 70.8017 11.6695 70.6845 11.6695C70.5672 11.6695 70.4713 11.7019 70.4713 11.7415C70.4713 11.7811 70.4074 11.8136 70.3293 11.8136C70.2511 11.8136 70.1872 11.846 70.1872 11.8856C70.1872 11.9252 70.1233 11.9576 70.0451 11.9576C69.967 11.9576 69.903 11.99 69.903 12.0297C69.903 12.0693 69.8391 12.1017 69.7609 12.1017C69.6828 12.1017 69.6189 12.1341 69.6189 12.1737C69.6189 12.2133 69.5549 12.2458 69.4768 12.2458C69.3986 12.2458 69.3347 12.2782 69.3347 12.3178C69.3347 12.3574 69.2778 12.3898 69.2083 12.3898C69.1388 12.3898 69.0358 12.4547 68.9795 12.5339C68.9232 12.6131 68.8273 12.678 68.7664 12.678C68.7055 12.678 68.6096 12.7428 68.5533 12.822C68.4969 12.9013 68.4095 12.9661 68.3588 12.9661C68.2388 12.9661 67.2035 14.0159 67.2035 14.1376C67.2035 14.1889 67.1396 14.2776 67.0614 14.3347C66.9833 14.3919 66.9194 14.4891 66.9194 14.5508C66.9194 14.6126 66.8554 14.7098 66.7773 14.7669C66.6991 14.8241 66.6352 14.9284 66.6352 14.999C66.6352 15.0694 66.6032 15.1271 66.5642 15.1271C66.5251 15.1271 66.4931 15.1919 66.4931 15.2712C66.4931 15.3504 66.4612 15.4153 66.4221 15.4153C66.383 15.4153 66.351 15.5125 66.351 15.6314C66.351 15.7502 66.3191 15.8475 66.28 15.8475C66.2409 15.8475 66.209 15.9447 66.209 16.0636C66.209 16.1824 66.177 16.2797 66.1379 16.2797C66.0989 16.2797 66.0669 16.4093 66.0669 16.5678C66.0669 16.7817 66.0381 16.8559 65.9553 16.8559C65.8117 16.8559 65.6406 16.6825 65.6406 16.5369C65.6406 16.4747 65.6087 16.4237 65.5696 16.4237C65.5305 16.4237 65.4986 16.366 65.4986 16.2956C65.4986 16.2251 65.4346 16.1207 65.3565 16.0636C65.2783 16.0064 65.2144 15.915 65.2144 15.8604C65.2144 15.8059 65.1185 15.6703 65.0013 15.5593C64.8841 15.4483 64.7882 15.3215 64.7882 15.2777C64.7882 15.1654 62.8913 13.2542 62.7799 13.2542C62.7295 13.2542 62.6423 13.1894 62.5859 13.1102C62.5296 13.0309 62.4337 12.9661 62.3728 12.9661C62.3119 12.9661 62.216 12.9013 62.1597 12.822C62.1034 12.7428 62.0004 12.678 61.9309 12.678C61.8614 12.678 61.8045 12.6456 61.8045 12.6059C61.8045 12.5663 61.7406 12.5339 61.6624 12.5339C61.5843 12.5339 61.5203 12.5015 61.5203 12.4619C61.5203 12.4222 61.4564 12.3898 61.3783 12.3898C61.3001 12.3898 61.2362 12.3574 61.2362 12.3178C61.2362 12.2782 61.1723 12.2458 61.0941 12.2458C61.016 12.2458 60.952 12.2133 60.952 12.1737C60.952 12.1341 60.8881 12.1017 60.81 12.1017C60.7318 12.1017 60.6679 12.0693 60.6679 12.0297C60.6679 11.99 60.6039 11.9576 60.5258 11.9576C60.4476 11.9576 60.3837 11.9252 60.3837 11.8856C60.3837 11.846 60.2878 11.8136 60.1706 11.8136C60.0534 11.8136 59.9575 11.7811 59.9575 11.7415C59.9575 11.7019 59.8616 11.6695 59.7444 11.6695C59.6271 11.6695 59.5312 11.6371 59.5312 11.5975C59.5312 11.5578 59.4353 11.5254 59.3181 11.5254C59.2009 11.5254 59.105 11.493 59.105 11.4534C59.105 11.4138 58.9771 11.3814 58.8208 11.3814C58.6646 11.3814 58.5367 11.3489 58.5367 11.3093C58.5367 11.2697 58.3768 11.2373 58.1815 11.2373C57.9861 11.2373 57.8263 11.2049 57.8263 11.1653C57.8263 11.1225 57.5658 11.0932 57.1869 11.0932C56.8081 11.0932 56.5476 11.0639 56.5476 11.0212C56.5476 10.9769 56.1924 10.9492 55.6241 10.9492C55.0557 10.9492 54.7005 10.9769 54.7005 11.0212C54.7005 11.0632 54.4638 11.0932 54.1322 11.0932C53.8007 11.0932 53.5639 11.1233 53.5639 11.1653C53.5639 11.2049 53.4041 11.2373 53.2087 11.2373C53.0133 11.2373 52.8535 11.2697 52.8535 11.3093C52.8535 11.3489 52.7256 11.3814 52.5693 11.3814C52.4131 11.3814 52.2852 11.4138 52.2852 11.4534C52.2852 11.493 52.1893 11.5254 52.0721 11.5254C51.9549 11.5254 51.859 11.5578 51.859 11.5975C51.859 11.6371 51.763 11.6695 51.6458 11.6695C51.5286 11.6695 51.4327 11.7019 51.4327 11.7415C51.4327 11.7811 51.3368 11.8136 51.2196 11.8136C51.1024 11.8136 51.0065 11.846 51.0065 11.8856C51.0065 11.9252 50.9425 11.9576 50.8644 11.9576C50.7863 11.9576 50.7223 11.99 50.7223 12.0297C50.7223 12.0693 50.6584 12.1017 50.5802 12.1017C50.5021 12.1017 50.4382 12.1341 50.4382 12.1737C50.4382 12.2133 50.3742 12.2458 50.2961 12.2458C50.2179 12.2458 50.154 12.2782 50.154 12.3178C50.154 12.3574 50.0901 12.3898 50.0119 12.3898C49.9338 12.3898 49.8698 12.4222 49.8698 12.4619C49.8698 12.5015 49.8059 12.5339 49.7278 12.5339C49.6496 12.5339 49.5857 12.5663 49.5857 12.6059C49.5857 12.6456 49.5288 12.678 49.4593 12.678C49.3898 12.678 49.2868 12.7428 49.2305 12.822C49.1742 12.9013 49.0712 12.9661 49.0017 12.9661C48.9322 12.9661 48.8753 12.9985 48.8753 13.0381C48.8753 13.0778 48.8242 13.1102 48.7617 13.1102C48.6993 13.1102 48.5585 13.2074 48.449 13.3263C48.3396 13.4451 48.214 13.5424 48.17 13.5424C48.0678 13.5424 47.4545 14.1615 47.4545 14.2648C47.4545 14.3077 47.2627 14.5336 47.0283 14.7669C46.7938 15.0003 46.602 15.2286 46.602 15.2743C46.602 15.32 46.5061 15.4483 46.3889 15.5593C46.2717 15.6703 46.1758 15.8059 46.1758 15.8604C46.1758 15.915 46.1118 16.0064 46.0337 16.0636C45.9556 16.1207 45.8916 16.2179 45.8916 16.2797C45.8916 16.3414 45.8277 16.4386 45.7495 16.4958C45.6714 16.5529 45.6075 16.6573 45.6075 16.7278C45.6075 16.7982 45.5755 16.8559 45.5364 16.8559C45.4974 16.8559 45.4654 16.9208 45.4654 17C45.4654 17.0792 45.4334 17.1441 45.3943 17.1441C45.3553 17.1441 45.3233 17.195 45.3233 17.2572C45.3233 17.3195 45.2754 17.4191 45.2167 17.4785C45.122 17.5745 45.0983 17.5745 45.0036 17.4785C44.945 17.4191 44.8971 17.3195 44.8971 17.2572C44.8971 17.195 44.8651 17.1441 44.826 17.1441C44.787 17.1441 44.755 17.0792 44.755 17C44.755 16.9208 44.723 16.8559 44.6839 16.8559C44.6449 16.8559 44.6129 16.7982 44.6129 16.7278C44.6129 16.6573 44.549 16.5529 44.4708 16.4958C44.3927 16.4386 44.3287 16.3414 44.3287 16.2797C44.3287 16.2179 44.2648 16.1207 44.1867 16.0636C44.1085 16.0064 44.0446 15.915 44.0446 15.8604C44.0446 15.8059 43.9487 15.6703 43.8315 15.5593C43.7143 15.4483 43.6184 15.3197 43.6184 15.2736C43.6184 15.2275 43.4585 15.032 43.2632 14.839C43.0678 14.646 42.908 14.4526 42.908 14.4091C42.908 14.3061 42.4389 13.8305 42.3374 13.8305C42.2945 13.8305 42.1037 13.6684 41.9134 13.4703C41.7231 13.2722 41.5174 13.1102 41.4563 13.1102C41.3951 13.1102 41.3451 13.0778 41.3451 13.0381C41.3451 12.9985 41.2882 12.9661 41.2187 12.9661C41.1492 12.9661 41.0462 12.9013 40.9899 12.822C40.9336 12.7428 40.8306 12.678 40.7611 12.678C40.6916 12.678 40.6347 12.6456 40.6347 12.6059C40.6347 12.5663 40.5708 12.5339 40.4926 12.5339C40.4145 12.5339 40.3505 12.5015 40.3505 12.4619C40.3505 12.4222 40.2866 12.3898 40.2084 12.3898C40.1303 12.3898 40.0664 12.3574 40.0664 12.3178C40.0664 12.2782 40.0024 12.2458 39.9243 12.2458C39.8461 12.2458 39.7822 12.2133 39.7822 12.1737C39.7822 12.1341 39.7183 12.1017 39.6401 12.1017C39.562 12.1017 39.4981 12.0693 39.4981 12.0297C39.4981 11.99 39.4341 11.9576 39.356 11.9576C39.2778 11.9576 39.2139 11.9252 39.2139 11.8856C39.2139 11.846 39.118 11.8136 39.0008 11.8136C38.8836 11.8136 38.7877 11.7811 38.7877 11.7415C38.7877 11.7019 38.6918 11.6695 38.5745 11.6695C38.4573 11.6695 38.3614 11.6371 38.3614 11.5975C38.3614 11.5578 38.2655 11.5254 38.1483 11.5254C38.0311 11.5254 37.9352 11.493 37.9352 11.4534C37.9352 11.4138 37.8073 11.3814 37.651 11.3814C37.4947 11.3814 37.3669 11.3489 37.3669 11.3093C37.3669 11.2697 37.207 11.2373 37.0117 11.2373C36.8163 11.2373 36.6565 11.2049 36.6565 11.1653C36.6565 11.1225 36.396 11.0932 36.0171 11.0932C35.6383 11.0932 35.3778 11.0639 35.3778 11.0212C35.3778 10.9772 35.0462 10.9492 34.5253 10.9492C34.0043 10.9492 33.6728 10.9772 33.6728 11.0212C33.6728 11.0639 33.4123 11.0932 33.0334 11.0932C32.6546 11.0932 32.3941 11.1225 32.3941 11.1653C32.3941 11.2049 32.2342 11.2373 32.0389 11.2373C31.8435 11.2373 31.6837 11.2697 31.6837 11.3093C31.6837 11.3489 31.5558 11.3814 31.3995 11.3814C31.2432 11.3814 31.1154 11.4138 31.1154 11.4534C31.1154 11.493 31.0195 11.5254 30.9023 11.5254C30.785 11.5254 30.6891 11.5578 30.6891 11.5975C30.6891 11.6371 30.5932 11.6695 30.476 11.6695C30.3588 11.6695 30.2629 11.7019 30.2629 11.7415C30.2629 11.7811 30.167 11.8136 30.0498 11.8136C29.9326 11.8136 29.8367 11.846 29.8367 11.8856C29.8367 11.9252 29.7727 11.9576 29.6946 11.9576C29.6164 11.9576 29.5525 11.99 29.5525 12.0297C29.5525 12.0693 29.4886 12.1017 29.4104 12.1017C29.3323 12.1017 29.2683 12.1341 29.2683 12.1737C29.2683 12.2133 29.2044 12.2458 29.1263 12.2458C29.0481 12.2458 28.9842 12.2782 28.9842 12.3178C28.9842 12.3574 28.9202 12.3898 28.8421 12.3898C28.764 12.3898 28.7 12.4222 28.7 12.4619C28.7 12.5015 28.6361 12.5339 28.5579 12.5339C28.4798 12.5339 28.4159 12.5663 28.4159 12.6059C28.4159 12.6456 28.359 12.678 28.2895 12.678C28.2199 12.678 28.117 12.7428 28.0607 12.822C28.0043 12.9013 27.9084 12.9661 27.8475 12.9661C27.7867 12.9661 27.6908 13.0309 27.6344 13.1102C27.5781 13.1894 27.4894 13.2542 27.4372 13.2542C27.3851 13.2542 27.1541 13.4487 26.924 13.6864C26.6939 13.9242 26.4697 14.1186 26.4256 14.1186C26.3223 14.1186 26.1426 14.3008 26.1426 14.4056C26.1426 14.4503 25.9508 14.6777 25.7164 14.911C25.4819 15.1443 25.2901 15.3785 25.2901 15.4314C25.2901 15.4843 25.2262 15.5742 25.148 15.6314C25.0699 15.6885 25.006 15.7857 25.006 15.8475C25.006 15.9092 24.942 16.0064 24.8639 16.0636C24.7857 16.1207 24.7218 16.2179 24.7218 16.2797C24.7218 16.3414 24.6579 16.4386 24.5797 16.4958C24.5016 16.5529 24.4376 16.6573 24.4376 16.7278C24.4376 16.7982 24.4057 16.8559 24.3666 16.8559C24.3275 16.8559 24.2956 16.9532 24.2956 17.072C24.2956 17.1909 24.2636 17.2881 24.2245 17.2881C24.1855 17.2881 24.1535 17.353 24.1535 17.4322C24.1535 17.5114 24.1215 17.5763 24.0824 17.5763C24.0434 17.5763 24.0114 17.6735 24.0114 17.7924C24.0114 17.9112 23.9794 18.0085 23.9404 18.0085C23.9013 18.0085 23.8693 18.1057 23.8693 18.2246C23.8693 18.3434 23.8374 18.4407 23.7983 18.4407C23.7592 18.4407 23.7272 18.5379 23.7272 18.6568C23.7272 18.7756 23.6953 18.8729 23.6562 18.8729C23.6171 18.8729 23.5852 18.9701 23.5852 19.089C23.5852 19.2078 23.5532 19.3051 23.5141 19.3051C23.4751 19.3051 23.4431 19.3699 23.4431 19.4492C23.4431 19.5321 23.3957 19.5932 23.3315 19.5932C23.2011 19.5932 23.0169 19.4242 23.0169 19.3046C23.0169 19.2591 22.889 19.0972 22.7327 18.9449C22.5764 18.7926 22.4485 18.6324 22.4485 18.5889C22.4485 18.4847 21.6935 17.7203 21.5906 17.7203C21.5468 17.7203 21.4214 17.6231 21.3119 17.5042C21.2024 17.3854 21.0617 17.2881 20.9993 17.2881C20.9367 17.2881 20.8857 17.2557 20.8857 17.2161C20.8857 17.1765 20.8217 17.1441 20.7436 17.1441C20.6654 17.1441 20.6015 17.1117 20.6015 17.072C20.6015 17.0324 20.5376 17 20.4594 17C20.3813 17 20.3173 16.9676 20.3173 16.928C20.3173 16.8883 20.2214 16.8559 20.1042 16.8559C19.987 16.8559 19.8911 16.8235 19.8911 16.7839C19.8911 16.7443 19.7313 16.7119 19.5359 16.7119C19.2281 16.7119 19.1807 16.6926 19.1807 16.5678C19.1807 16.4718 19.2281 16.4237 19.3228 16.4237C19.4009 16.4237 19.4649 16.3913 19.4649 16.3517C19.4649 16.3121 19.5608 16.2797 19.678 16.2797C19.7952 16.2797 19.8911 16.2472 19.8911 16.2076C19.8911 16.168 19.955 16.1356 20.0332 16.1356C20.1113 16.1356 20.1753 16.1032 20.1753 16.0636C20.1753 16.0239 20.2392 15.9915 20.3173 15.9915C20.3955 15.9915 20.4594 15.9591 20.4594 15.9195C20.4594 15.8799 20.5234 15.8475 20.6015 15.8475C20.6796 15.8475 20.7436 15.815 20.7436 15.7754C20.7436 15.7358 20.7919 15.7034 20.851 15.7034C20.9735 15.7034 22.4485 14.2344 22.4485 14.1124C22.4485 14.0684 22.5444 13.9415 22.6617 13.8305C22.7789 13.7195 22.8748 13.5768 22.8748 13.5135C22.8748 13.4501 22.9067 13.3983 22.9458 13.3983C22.9849 13.3983 23.0169 13.3406 23.0169 13.2702C23.0169 13.1996 23.0808 13.0953 23.1589 13.0381C23.2371 12.981 23.301 12.8766 23.301 12.8061C23.301 12.7357 23.333 12.678 23.372 12.678C23.4111 12.678 23.4431 12.5807 23.4431 12.4619C23.4431 12.343 23.4751 12.2458 23.5141 12.2458C23.5532 12.2458 23.5852 12.1809 23.5852 12.1017C23.5852 12.0225 23.6171 11.9576 23.6562 11.9576C23.6953 11.9576 23.7272 11.8604 23.7272 11.7415C23.7272 11.6227 23.7592 11.5254 23.7983 11.5254C23.8374 11.5254 23.8693 11.4282 23.8693 11.3093C23.8693 11.1905 23.9013 11.0932 23.9404 11.0932C23.9794 11.0932 24.0114 10.996 24.0114 10.8771C24.0114 10.7583 24.0434 10.661 24.0824 10.661C24.1219 10.661 24.1535 10.4689 24.1535 10.2288C24.1535 9.98872 24.185 9.79661 24.2245 9.79661C24.2687 9.79661 24.2956 9.38839 24.2956 8.7161C24.2956 8.04381 24.2687 7.63559 24.2245 7.63559C24.185 7.63559 24.1535 7.44348 24.1535 7.20339C24.1535 6.9633 24.1219 6.77119 24.0824 6.77119C24.0434 6.77119 24.0114 6.64153 24.0114 6.48305C24.0114 6.32458 23.9794 6.19492 23.9404 6.19492C23.9013 6.19492 23.8693 6.09767 23.8693 5.97881C23.8693 5.85996 23.8374 5.76271 23.7983 5.76271C23.7592 5.76271 23.7272 5.69788 23.7272 5.61864C23.7272 5.53941 23.6953 5.47458 23.6562 5.47458C23.6171 5.47458 23.5852 5.38446 23.5852 5.27439C23.5852 5.15684 23.5265 5.03135 23.4431 4.97034C23.3649 4.91322 23.301 4.80884 23.301 4.73832C23.301 4.66787 23.269 4.61017 23.23 4.61017C23.1909 4.61017 23.1589 4.54534 23.1589 4.4661C23.1589 4.38686 23.127 4.32203 23.0879 4.32203C23.0488 4.32203 23.0169 4.2572 23.0169 4.17797C23.0169 4.09873 22.9849 4.0339 22.9458 4.0339C22.9067 4.0339 22.8748 3.98211 22.8748 3.91872C22.8748 3.8554 22.7789 3.7127 22.6617 3.60169C22.5444 3.49069 22.4485 3.36384 22.4485 3.31982C22.4485 3.20745 20.9784 1.72881 20.8666 1.72881C20.8162 1.72881 20.7289 1.66398 20.6725 1.58475C20.6162 1.50551 20.5133 1.44068 20.4437 1.44068C20.3742 1.44068 20.3173 1.40826 20.3173 1.36864C20.3173 1.32903 20.2604 1.29661 20.191 1.29661C20.1214 1.29661 20.0185 1.23178 19.9621 1.15254C19.9058 1.07331 19.8029 1.00847 19.7333 1.00847C19.6638 1.00847 19.6069 0.976059 19.6069 0.936441C19.6069 0.896822 19.543 0.864407 19.4649 0.864407C19.3867 0.864407 19.3228 0.831992 19.3228 0.792373C19.3228 0.752754 19.2269 0.720339 19.1097 0.720339C18.9925 0.720339 18.8966 0.687924 18.8966 0.648305C18.8966 0.608686 18.8006 0.576271 18.6834 0.576271C18.5662 0.576271 18.4703 0.543856 18.4703 0.504237C18.4703 0.464619 18.3744 0.432203 18.2572 0.432203C18.14 0.432203 18.0441 0.399788 18.0441 0.360169C18.0441 0.320551 17.9162 0.288136 17.7599 0.288136C17.6036 0.288136 17.4758 0.25572 17.4758 0.216102C17.4758 0.174106 17.239 0.144068 16.9074 0.144068C16.5759 0.144068 16.3391 0.11403 16.3391 0.0720339C16.3391 0.0244195 13.5686 0 8.16956 0H0V17ZM15.0604 5.69068C15.0604 5.7303 15.1563 5.76271 15.2735 5.76271C15.3907 5.76271 15.4866 5.79513 15.4866 5.83475C15.4866 5.87436 15.5506 5.90678 15.6287 5.90678C15.7069 5.90678 15.7708 5.93919 15.7708 5.97881C15.7708 6.01843 15.8219 6.05085 15.8844 6.05085C15.9468 6.05085 16.0876 6.14809 16.197 6.26695C16.3065 6.3858 16.4327 6.48305 16.4774 6.48305C16.5894 6.48305 16.9074 6.81513 16.9074 6.93211C16.9074 6.98455 16.9714 7.07423 17.0495 7.13136C17.1277 7.18848 17.1916 7.29286 17.1916 7.36338C17.1916 7.43383 17.2236 7.49153 17.2626 7.49153C17.3017 7.49153 17.3337 7.55636 17.3337 7.63559C17.3337 7.71483 17.3656 7.77966 17.4047 7.77966C17.4438 7.77966 17.4758 7.84449 17.4758 7.92373C17.4758 8.00297 17.5077 8.0678 17.5468 8.0678C17.5859 8.0678 17.6178 8.16504 17.6178 8.2839C17.6178 8.40275 17.6498 8.5 17.6889 8.5C17.7279 8.5 17.7599 8.66208 17.7599 8.86017C17.7599 9.05826 17.7919 9.22034 17.831 9.22034C17.8715 9.22034 17.902 9.43644 17.902 9.72458C17.902 10.0127 17.8715 10.2288 17.831 10.2288C17.7915 10.2288 17.7599 10.4209 17.7599 10.661C17.7599 10.9011 17.7284 11.0932 17.6889 11.0932C17.6498 11.0932 17.6178 11.1905 17.6178 11.3093C17.6178 11.4282 17.5859 11.5254 17.5468 11.5254C17.5077 11.5254 17.4758 11.6155 17.4758 11.7256C17.4758 11.8432 17.4171 11.9686 17.3337 12.0297C17.2555 12.0868 17.1916 12.184 17.1916 12.2458C17.1916 12.3075 17.1277 12.4047 17.0495 12.4619C16.9714 12.519 16.9074 12.6087 16.9074 12.6611C16.9074 12.7781 16.5894 13.1102 16.4774 13.1102C16.4327 13.1102 16.3065 13.2074 16.197 13.3263C16.0876 13.4451 15.9468 13.5424 15.8844 13.5424C15.8219 13.5424 15.7708 13.5748 15.7708 13.6144C15.7708 13.654 15.6749 13.6864 15.5577 13.6864C15.4405 13.6864 15.3446 13.7189 15.3446 13.7585C15.3446 13.7981 15.2167 13.8305 15.0604 13.8305C14.9041 13.8305 14.7762 13.8629 14.7762 13.9025C14.7762 13.9498 13.3101 13.9746 10.5198 13.9746C7.17891 13.9746 6.25653 13.994 6.2316 14.0646C6.2132 14.117 6.17356 14.1279 6.1369 14.0908C6.10025 14.0536 6.11104 14.0134 6.16269 13.9947C6.23231 13.9695 6.25149 13.063 6.25149 9.79063V5.61864H10.6559C13.5449 5.61864 15.0604 5.64342 15.0604 5.69068ZM17.3337 6.98729C17.3337 7.02691 17.3017 7.05932 17.2626 7.05932C17.2236 7.05932 17.1916 7.02691 17.1916 6.98729C17.1916 6.94767 17.2236 6.91525 17.2626 6.91525C17.3017 6.91525 17.3337 6.94767 17.3337 6.98729ZM87.3788 10.2699C87.3788 10.2926 87.3293 10.3613 87.2688 10.4226C87.1301 10.5633 87.0468 10.4928 87.1763 10.3444C87.2733 10.2331 87.3788 10.1943 87.3788 10.2699ZM17.902 11.4534C17.902 11.493 17.87 11.5254 17.831 11.5254C17.7919 11.5254 17.7599 11.493 17.7599 11.4534C17.7599 11.4138 17.7919 11.3814 17.831 11.3814C17.87 11.3814 17.902 11.4138 17.902 11.4534ZM23.0169 12.8941C23.0169 12.9337 22.9849 12.9661 22.9458 12.9661C22.9067 12.9661 22.8748 12.9337 22.8748 12.8941C22.8748 12.8544 22.9067 12.822 22.9458 12.822C22.9849 12.822 23.0169 12.8544 23.0169 12.8941ZM22.5906 13.6144C22.5906 13.654 22.5586 13.6864 22.5196 13.6864C22.4805 13.6864 22.4485 13.654 22.4485 13.6144C22.4485 13.5748 22.4805 13.5424 22.5196 13.5424C22.5586 13.5424 22.5906 13.5748 22.5906 13.6144ZM25.7164 15.3432C25.7164 15.3828 25.6844 15.4153 25.6453 15.4153C25.6062 15.4153 25.5743 15.3828 25.5743 15.3432C25.5743 15.3036 25.6062 15.2712 25.6453 15.2712C25.6844 15.2712 25.7164 15.3036 25.7164 15.3432ZM46.8862 15.3432C46.8862 15.3828 46.8542 15.4153 46.8151 15.4153C46.7761 15.4153 46.7441 15.3828 46.7441 15.3432C46.7441 15.3036 46.7761 15.2712 46.8151 15.2712C46.8542 15.2712 46.8862 15.3036 46.8862 15.3432ZM86.5263 15.3432C86.5263 15.3828 86.4943 15.4153 86.4553 15.4153C86.4162 15.4153 86.3842 15.3828 86.3842 15.3432C86.3842 15.3036 86.4162 15.2712 86.4553 15.2712C86.4943 15.2712 86.5263 15.3036 86.5263 15.3432ZM25.4322 15.7754C25.4322 15.815 25.4002 15.8475 25.3612 15.8475C25.3221 15.8475 25.2901 15.815 25.2901 15.7754C25.2901 15.7358 25.3221 15.7034 25.3612 15.7034C25.4002 15.7034 25.4322 15.7358 25.4322 15.7754ZM43.7604 15.7754C43.7604 15.815 43.7285 15.8475 43.6894 15.8475C43.6503 15.8475 43.6184 15.815 43.6184 15.7754C43.6184 15.7358 43.6503 15.7034 43.6894 15.7034C43.7285 15.7034 43.7604 15.7358 43.7604 15.7754ZM64.9303 15.7754C64.9303 15.815 64.8983 15.8475 64.8592 15.8475C64.8201 15.8475 64.7882 15.815 64.7882 15.7754C64.7882 15.7358 64.8201 15.7034 64.8592 15.7034C64.8983 15.7034 64.9303 15.7358 64.9303 15.7754ZM35.5198 16.0636C35.5198 16.1032 35.6797 16.1356 35.875 16.1356C36.0704 16.1356 36.2302 16.168 36.2302 16.2076C36.2302 16.2472 36.2942 16.2797 36.3723 16.2797C36.4505 16.2797 36.5144 16.3121 36.5144 16.3517C36.5144 16.3913 36.6103 16.4237 36.7275 16.4237C36.8447 16.4237 36.9406 16.4561 36.9406 16.4958C36.9406 16.5354 36.9975 16.5678 37.067 16.5678C37.1366 16.5678 37.2395 16.6326 37.2958 16.7119C37.3522 16.7911 37.4481 16.8559 37.5089 16.8559C37.5698 16.8559 37.6657 16.9208 37.7221 17C37.7784 17.0792 37.8661 17.1441 37.9169 17.1441C38.0297 17.1441 38.7877 17.9013 38.7877 18.014C38.7877 18.0584 38.8836 18.1856 39.0008 18.2966C39.118 18.4076 39.2139 18.5503 39.2139 18.6136C39.2139 18.677 39.2459 18.7288 39.2849 18.7288C39.324 18.7288 39.356 18.7936 39.356 18.8729C39.356 18.9521 39.3879 19.0169 39.427 19.0169C39.4661 19.0169 39.4981 19.0818 39.4981 19.161C39.4981 19.2403 39.53 19.3051 39.5691 19.3051C39.6082 19.3051 39.6401 19.3699 39.6401 19.4492C39.6401 19.5284 39.6721 19.5932 39.7112 19.5932C39.7502 19.5932 39.7822 19.6905 39.7822 19.8093C39.7822 19.9282 39.8142 20.0254 39.8533 20.0254C39.8923 20.0254 39.9243 20.1551 39.9243 20.3136C39.9243 20.472 39.9563 20.6017 39.9953 20.6017C40.0344 20.6017 40.0664 20.7638 40.0664 20.9619C40.0664 21.16 40.0983 21.322 40.1374 21.322C40.1816 21.322 40.2084 21.7302 40.2084 22.4025C40.2084 23.0748 40.1816 23.4831 40.1374 23.4831C40.0979 23.4831 40.0664 23.6752 40.0664 23.9153C40.0664 24.1553 40.0348 24.3475 39.9953 24.3475C39.9563 24.3475 39.9243 24.4771 39.9243 24.6356C39.9243 24.7941 39.8923 24.9237 39.8533 24.9237C39.8142 24.9237 39.7822 24.9886 39.7822 25.0678C39.7822 25.147 39.7502 25.2119 39.7112 25.2119C39.6721 25.2119 39.6401 25.3091 39.6401 25.428C39.6401 25.5468 39.6082 25.6441 39.5691 25.6441C39.53 25.6441 39.4981 25.7089 39.4981 25.7881C39.4981 25.8674 39.4661 25.9322 39.427 25.9322C39.3879 25.9322 39.356 25.9899 39.356 26.0604C39.356 26.1309 39.292 26.2352 39.2139 26.2924C39.1357 26.3495 39.0718 26.438 39.0718 26.4892C39.0718 26.6106 37.6096 28.0932 37.4899 28.0932C37.4395 28.0932 37.3522 28.1581 37.2958 28.2373C37.2357 28.3219 37.1119 28.3814 36.996 28.3814C36.8874 28.3814 36.7985 28.4138 36.7985 28.4534C36.7985 28.493 36.7346 28.5254 36.6565 28.5254C36.5783 28.5254 36.5144 28.5578 36.5144 28.5975C36.5144 28.6371 36.4185 28.6695 36.3013 28.6695C36.1841 28.6695 36.0881 28.7019 36.0881 28.7415C36.0881 28.7811 35.9603 28.8136 35.804 28.8136C35.6477 28.8136 35.5198 28.846 35.5198 28.8856C35.5198 28.9302 35.141 28.9576 34.5253 28.9576C33.9096 28.9576 33.5307 28.9302 33.5307 28.8856C33.5307 28.846 33.4028 28.8136 33.2466 28.8136C33.0903 28.8136 32.9624 28.7811 32.9624 28.7415C32.9624 28.7019 32.8665 28.6695 32.7493 28.6695C32.6321 28.6695 32.5362 28.6371 32.5362 28.5975C32.5362 28.5578 32.4473 28.5254 32.3387 28.5254C32.2228 28.5254 32.0991 28.4659 32.0389 28.3814C31.9826 28.3021 31.8796 28.2373 31.8101 28.2373C31.7406 28.2373 31.6837 28.2049 31.6837 28.1653C31.6837 28.1256 31.6354 28.0932 31.5763 28.0932C31.4458 28.0932 29.9787 26.6202 29.9787 26.4892C29.9787 26.438 29.9148 26.3495 29.8367 26.2924C29.7585 26.2352 29.6946 26.1309 29.6946 26.0604C29.6946 25.9899 29.6626 25.9322 29.6235 25.9322C29.5845 25.9322 29.5525 25.8674 29.5525 25.7881C29.5525 25.7089 29.5205 25.6441 29.4815 25.6441C29.4424 25.6441 29.4104 25.5468 29.4104 25.428C29.4104 25.3091 29.3785 25.2119 29.3394 25.2119C29.3003 25.2119 29.2683 25.147 29.2683 25.0678C29.2683 24.9886 29.2364 24.9237 29.1973 24.9237C29.1582 24.9237 29.1263 24.7941 29.1263 24.6356C29.1263 24.4771 29.0943 24.3475 29.0552 24.3475C29.0161 24.3475 28.9842 24.1854 28.9842 23.9873C28.9842 23.7892 28.9522 23.6271 28.9131 23.6271C28.8687 23.6271 28.8421 23.1949 28.8421 22.4746C28.8421 21.7542 28.8687 21.322 28.9131 21.322C28.9522 21.322 28.9842 21.16 28.9842 20.9619C28.9842 20.7638 29.0161 20.6017 29.0552 20.6017C29.0943 20.6017 29.1263 20.472 29.1263 20.3136C29.1263 20.1551 29.1582 20.0254 29.1973 20.0254C29.2364 20.0254 29.2683 19.9282 29.2683 19.8093C29.2683 19.6905 29.3003 19.5932 29.3394 19.5932C29.3785 19.5932 29.4104 19.5284 29.4104 19.4492C29.4104 19.3699 29.4424 19.3051 29.4815 19.3051C29.5205 19.3051 29.5525 19.2403 29.5525 19.161C29.5525 19.0818 29.5845 19.0169 29.6235 19.0169C29.6626 19.0169 29.6946 18.9521 29.6946 18.8729C29.6946 18.7936 29.7265 18.7288 29.7656 18.7288C29.8047 18.7288 29.8367 18.6711 29.8367 18.6007C29.8367 18.5301 29.9006 18.4258 29.9787 18.3686C30.0569 18.3115 30.1208 18.2226 30.1208 18.1711C30.1208 18.0567 30.8676 17.2881 30.9788 17.2881C31.0225 17.2881 31.148 17.1909 31.2575 17.072C31.3669 16.9532 31.5006 16.8559 31.5544 16.8559C31.6082 16.8559 31.6984 16.7911 31.7547 16.7119C31.8111 16.6326 31.914 16.5678 31.9835 16.5678C32.053 16.5678 32.1099 16.5354 32.1099 16.4958C32.1099 16.4561 32.2058 16.4237 32.323 16.4237C32.4403 16.4237 32.5362 16.3913 32.5362 16.3517C32.5362 16.3121 32.6001 16.2797 32.6782 16.2797C32.7564 16.2797 32.8203 16.2472 32.8203 16.2076C32.8203 16.168 32.9802 16.1356 33.1755 16.1356C33.3709 16.1356 33.5307 16.1032 33.5307 16.0636C33.5307 16.019 33.9096 15.9915 34.5253 15.9915C35.141 15.9915 35.5198 16.019 35.5198 16.0636ZM56.6897 16.0636C56.6897 16.1032 56.8175 16.1356 56.9738 16.1356C57.1301 16.1356 57.258 16.168 57.258 16.2076C57.258 16.2472 57.3539 16.2797 57.4711 16.2797C57.5883 16.2797 57.6842 16.3121 57.6842 16.3517C57.6842 16.3913 57.7731 16.4237 57.8816 16.4237C57.9976 16.4237 58.1213 16.4832 58.1815 16.5678C58.2378 16.647 58.3408 16.7119 58.4103 16.7119C58.4798 16.7119 58.5367 16.7443 58.5367 16.7839C58.5367 16.8235 58.5878 16.8559 58.6503 16.8559C58.7127 16.8559 58.8534 16.9532 58.9629 17.072C59.0724 17.1909 59.198 17.2881 59.242 17.2881C59.346 17.2881 59.9575 17.9082 59.9575 18.0137C59.9575 18.0583 60.0534 18.1856 60.1706 18.2966C60.2878 18.4076 60.3837 18.5503 60.3837 18.6136C60.3837 18.677 60.4157 18.7288 60.4548 18.7288C60.4938 18.7288 60.5258 18.7936 60.5258 18.8729C60.5258 18.9521 60.5578 19.0169 60.5968 19.0169C60.6359 19.0169 60.6679 19.0818 60.6679 19.161C60.6679 19.2403 60.6998 19.3051 60.7389 19.3051C60.778 19.3051 60.81 19.3699 60.81 19.4492C60.81 19.5284 60.8419 19.5932 60.881 19.5932C60.9201 19.5932 60.952 19.6905 60.952 19.8093C60.952 19.9282 60.984 20.0254 61.0231 20.0254C61.0621 20.0254 61.0941 20.1551 61.0941 20.3136C61.0941 20.472 61.1261 20.6017 61.1651 20.6017C61.2042 20.6017 61.2362 20.7638 61.2362 20.9619C61.2362 21.16 61.2682 21.322 61.3072 21.322C61.3514 21.322 61.3783 21.7302 61.3783 22.4025C61.3783 23.0748 61.3514 23.4831 61.3072 23.4831C61.2677 23.4831 61.2362 23.6752 61.2362 23.9153C61.2362 24.1553 61.2046 24.3475 61.1651 24.3475C61.1261 24.3475 61.0941 24.4447 61.0941 24.5636C61.0941 24.6824 61.0621 24.7797 61.0231 24.7797C60.984 24.7797 60.952 24.8769 60.952 24.9958C60.952 25.1146 60.9201 25.2119 60.881 25.2119C60.8419 25.2119 60.81 25.3091 60.81 25.428C60.81 25.5468 60.778 25.6441 60.7389 25.6441C60.6998 25.6441 60.6679 25.7089 60.6679 25.7881C60.6679 25.8674 60.6359 25.9322 60.5968 25.9322C60.5578 25.9322 60.5258 25.9899 60.5258 26.0604C60.5258 26.1309 60.4619 26.2352 60.3837 26.2924C60.3056 26.3495 60.2416 26.4381 60.2416 26.4893C60.2416 26.6107 58.9216 27.9492 58.8019 27.9492C58.7514 27.9492 58.6641 28.014 58.6077 28.0932C58.5514 28.1725 58.4485 28.2373 58.3789 28.2373C58.3094 28.2373 58.2525 28.2697 58.2525 28.3093C58.2525 28.3489 58.1886 28.3814 58.1104 28.3814C58.0323 28.3814 57.9684 28.4138 57.9684 28.4534C57.9684 28.493 57.9044 28.5254 57.8263 28.5254C57.7481 28.5254 57.6842 28.5578 57.6842 28.5975C57.6842 28.6371 57.5883 28.6695 57.4711 28.6695C57.3539 28.6695 57.258 28.7019 57.258 28.7415C57.258 28.7811 57.0981 28.8136 56.9028 28.8136C56.7074 28.8136 56.5476 28.846 56.5476 28.8856C56.5476 28.9299 56.1924 28.9576 55.6241 28.9576C55.0557 28.9576 54.7005 28.9299 54.7005 28.8856C54.7005 28.846 54.5727 28.8136 54.4164 28.8136C54.2601 28.8136 54.1322 28.7811 54.1322 28.7415C54.1322 28.7019 54.0363 28.6695 53.9191 28.6695C53.8019 28.6695 53.706 28.6371 53.706 28.5975C53.706 28.5578 53.6101 28.5254 53.4929 28.5254C53.3756 28.5254 53.2797 28.493 53.2797 28.4534C53.2797 28.4138 53.2158 28.3814 53.1377 28.3814C53.0595 28.3814 52.9956 28.3489 52.9956 28.3093C52.9956 28.2697 52.9473 28.2373 52.8882 28.2373C52.7579 28.2373 51.1486 26.6201 51.1486 26.4891C51.1486 26.438 51.0846 26.3495 51.0065 26.2924C50.9283 26.2352 50.8644 26.1309 50.8644 26.0604C50.8644 25.9899 50.8324 25.9322 50.7934 25.9322C50.7543 25.9322 50.7223 25.8674 50.7223 25.7881C50.7223 25.7089 50.6904 25.6441 50.6513 25.6441C50.6122 25.6441 50.5802 25.5468 50.5802 25.428C50.5802 25.3091 50.5483 25.2119 50.5092 25.2119C50.4701 25.2119 50.4382 25.147 50.4382 25.0678C50.4382 24.9886 50.4062 24.9237 50.3671 24.9237C50.328 24.9237 50.2961 24.7941 50.2961 24.6356C50.2961 24.4771 50.2641 24.3475 50.225 24.3475C50.1855 24.3475 50.154 24.1553 50.154 23.9153C50.154 23.6752 50.1225 23.4831 50.083 23.4831C50.0388 23.4831 50.0119 23.0748 50.0119 22.4025C50.0119 21.7302 50.0388 21.322 50.083 21.322C50.122 21.322 50.154 21.16 50.154 20.9619C50.154 20.7638 50.186 20.6017 50.225 20.6017C50.2641 20.6017 50.2961 20.472 50.2961 20.3136C50.2961 20.1551 50.328 20.0254 50.3671 20.0254C50.4062 20.0254 50.4382 19.9282 50.4382 19.8093C50.4382 19.6905 50.4701 19.5932 50.5092 19.5932C50.5483 19.5932 50.5802 19.5284 50.5802 19.4492C50.5802 19.3699 50.6122 19.3051 50.6513 19.3051C50.6904 19.3051 50.7223 19.2403 50.7223 19.161C50.7223 19.0818 50.7543 19.0169 50.7934 19.0169C50.8324 19.0169 50.8644 18.9521 50.8644 18.8729C50.8644 18.7936 50.8964 18.7288 50.9354 18.7288C50.9745 18.7288 51.0065 18.677 51.0065 18.6136C51.0065 18.5503 51.1024 18.4076 51.2196 18.2966C51.3368 18.1856 51.4327 18.0584 51.4327 18.014C51.4327 17.9089 52.1869 17.1441 52.2907 17.1441C52.3344 17.1441 52.4599 17.0468 52.5693 16.928C52.6788 16.8091 52.8196 16.7119 52.882 16.7119C52.9445 16.7119 52.9956 16.6794 52.9956 16.6398C52.9956 16.6002 53.0595 16.5678 53.1377 16.5678C53.2158 16.5678 53.2797 16.5354 53.2797 16.4958C53.2797 16.4561 53.3437 16.4237 53.4218 16.4237C53.5 16.4237 53.5639 16.3913 53.5639 16.3517C53.5639 16.3121 53.6598 16.2797 53.777 16.2797C53.8942 16.2797 53.9901 16.2472 53.9901 16.2076C53.9901 16.168 54.15 16.1356 54.3453 16.1356C54.5407 16.1356 54.7005 16.1032 54.7005 16.0636C54.7005 16.019 55.0794 15.9915 55.6951 15.9915C56.3108 15.9915 56.6897 16.019 56.6897 16.0636ZM24.8639 16.6398C24.8639 16.6794 24.8319 16.7119 24.7928 16.7119C24.7538 16.7119 24.7218 16.6794 24.7218 16.6398C24.7218 16.6002 24.7538 16.5678 24.7928 16.5678C24.8319 16.5678 24.8639 16.6002 24.8639 16.6398ZM44.3287 16.6398C44.3287 16.6794 44.2968 16.7119 44.2577 16.7119C44.2186 16.7119 44.1867 16.6794 44.1867 16.6398C44.1867 16.6002 44.2186 16.5678 44.2577 16.5678C44.2968 16.5678 44.3287 16.6002 44.3287 16.6398ZM65.4986 16.6398C65.4986 16.6794 65.4666 16.7119 65.4275 16.7119C65.3885 16.7119 65.3565 16.6794 65.3565 16.6398C65.3565 16.6002 65.3885 16.5678 65.4275 16.5678C65.4666 16.5678 65.4986 16.6002 65.4986 16.6398ZM44.8971 17.6483C44.8971 17.6879 44.8651 17.7203 44.826 17.7203C44.787 17.7203 44.755 17.6879 44.755 17.6483C44.755 17.6087 44.787 17.5763 44.826 17.5763C44.8651 17.5763 44.8971 17.6087 44.8971 17.6483ZM45.4654 17.6483C45.4654 17.6879 45.4334 17.7203 45.3943 17.7203C45.3553 17.7203 45.3233 17.6879 45.3233 17.6483C45.3233 17.6087 45.3553 17.5763 45.3943 17.5763C45.4334 17.5763 45.4654 17.6087 45.4654 17.6483ZM6.25149 19.3771C6.25149 19.4244 7.76698 19.4492 10.6559 19.4492C13.5449 19.4492 15.0604 19.4739 15.0604 19.5212C15.0604 19.5608 15.1883 19.5932 15.3446 19.5932C15.5009 19.5932 15.6287 19.6256 15.6287 19.6653C15.6287 19.7049 15.7246 19.7373 15.8418 19.7373C15.9591 19.7373 16.055 19.7697 16.055 19.8093C16.055 19.8489 16.1189 19.8814 16.197 19.8814C16.2752 19.8814 16.3391 19.9138 16.3391 19.9534C16.3391 19.993 16.3876 20.0254 16.4468 20.0254C16.5872 20.0254 17.6178 21.0705 17.6178 21.2128C17.6178 21.2729 17.6498 21.322 17.6889 21.322C17.7279 21.322 17.7599 21.3797 17.7599 21.4502C17.7599 21.5207 17.8239 21.6251 17.902 21.6822C17.9854 21.7432 18.0441 21.8687 18.0441 21.9863C18.0441 22.0963 18.076 22.1864 18.1151 22.1864C18.1542 22.1864 18.1862 22.2513 18.1862 22.3305C18.1862 22.4097 18.2181 22.4746 18.2572 22.4746C18.2963 22.4746 18.3282 22.6367 18.3282 22.8347C18.3282 23.0328 18.3602 23.1949 18.3993 23.1949C18.4423 23.1949 18.4703 23.507 18.4703 23.9873C18.4703 24.4675 18.4423 24.7797 18.3993 24.7797C18.3602 24.7797 18.3282 24.9417 18.3282 25.1398C18.3282 25.3379 18.2963 25.5 18.2572 25.5C18.2181 25.5 18.1862 25.5648 18.1862 25.6441C18.1862 25.7233 18.1542 25.7881 18.1151 25.7881C18.076 25.7881 18.0441 25.853 18.0441 25.9322C18.0441 26.0114 18.0121 26.0763 17.973 26.0763C17.934 26.0763 17.902 26.1411 17.902 26.2203C17.902 26.2996 17.87 26.3644 17.831 26.3644C17.7919 26.3644 17.7599 26.4221 17.7599 26.4926C17.7599 26.5631 17.696 26.6675 17.6178 26.7246C17.5397 26.7817 17.4758 26.8707 17.4758 26.9224C17.4758 27.0448 16.8681 27.661 16.7474 27.661C16.6964 27.661 16.6086 27.7258 16.5522 27.8051C16.4959 27.8843 16.393 27.9492 16.3234 27.9492C16.2539 27.9492 16.197 27.9816 16.197 28.0212C16.197 28.0608 16.1331 28.0932 16.055 28.0932C15.9768 28.0932 15.9129 28.1256 15.9129 28.1653C15.9129 28.2049 15.785 28.2373 15.6287 28.2373C15.4724 28.2373 15.3446 28.2697 15.3446 28.3093C15.3446 28.3566 13.7817 28.3814 10.798 28.3814H6.25149V23.9153C6.25149 20.9859 6.22705 19.4492 6.18045 19.4492C6.14138 19.4492 6.10941 19.4167 6.10941 19.3771C6.10941 19.3375 6.14138 19.3051 6.18045 19.3051C6.21952 19.3051 6.25149 19.3375 6.25149 19.3771ZM17.6178 20.6737C17.6178 20.7133 17.5859 20.7458 17.5468 20.7458C17.5077 20.7458 17.4758 20.7133 17.4758 20.6737C17.4758 20.6341 17.5077 20.6017 17.5468 20.6017C17.5859 20.6017 17.6178 20.6341 17.6178 20.6737ZM17.902 26.8686C17.902 26.9083 17.87 26.9407 17.831 26.9407C17.7919 26.9407 17.7599 26.9083 17.7599 26.8686C17.7599 26.829 17.7919 26.7966 17.831 26.7966C17.87 26.7966 17.902 26.829 17.902 26.8686ZM39.0718 27.0127C39.0718 27.0523 39.0398 27.0847 39.0008 27.0847C38.9617 27.0847 38.9297 27.0523 38.9297 27.0127C38.9297 26.9731 38.9617 26.9407 39.0008 26.9407C39.0398 26.9407 39.0718 26.9731 39.0718 27.0127ZM51.2906 27.0127C51.2906 27.0523 51.2587 27.0847 51.2196 27.0847C51.1805 27.0847 51.1486 27.0523 51.1486 27.0127C51.1486 26.9731 51.1805 26.9407 51.2196 26.9407C51.2587 26.9407 51.2906 26.9731 51.2906 27.0127ZM59.9575 27.2672C59.9575 27.3406 59.4505 27.8193 59.413 27.7812C59.3923 27.7602 59.4824 27.6295 59.6131 27.4909C59.8348 27.2558 59.9575 27.1762 59.9575 27.2672ZM30.7341 27.6298C30.8735 27.7711 30.9705 27.904 30.9496 27.9252C30.912 27.9633 30.405 27.4849 30.405 27.4113C30.405 27.3266 30.4924 27.3847 30.7341 27.6298ZM45.7495 27.7331C45.7495 27.7727 45.7176 27.8051 45.6785 27.8051C45.6394 27.8051 45.6075 27.7727 45.6075 27.7331C45.6075 27.6934 45.6394 27.661 45.6785 27.661C45.7176 27.661 45.7495 27.6934 45.7495 27.7331ZM44.1867 28.4534C44.1867 28.493 44.1547 28.5254 44.1156 28.5254C44.0766 28.5254 44.0446 28.493 44.0446 28.4534C44.0446 28.4138 44.0766 28.3814 44.1156 28.3814C44.1547 28.3814 44.1867 28.4138 44.1867 28.4534ZM67.0614 30.6144C67.0614 30.654 67.0295 30.6864 66.9904 30.6864C66.9513 30.6864 66.9194 30.654 66.9194 30.6144C66.9194 30.5748 66.9513 30.5424 66.9904 30.5424C67.0295 30.5424 67.0614 30.5748 67.0614 30.6144Z" fill="#C4151C"/>
</svg>
