<svg width="113" height="90" viewBox="0 0 113 90" fill="none" xmlns="http://www.w3.org/2000/svg">
<path fill-rule="evenodd" clip-rule="evenodd" d="M1.55285 1.46277C0.853443 2.16218 0.843872 2.64429 0.843872 37.6368V73.1023L1.71415 73.9722L2.58407 74.8425H56.499H110.414L111.284 73.9722L112.154 73.1023V37.7159C112.154 6.26223 112.093 2.24194 111.602 1.54182L111.051 0.753784H56.6561C2.73437 0.753784 2.25581 0.759811 1.55285 1.46277ZM107.459 37.7095L107.369 70.0568H56.499H5.62951L5.53911 37.7095L5.44836 5.36217H56.499H107.55L107.459 37.7095ZM81.4907 12.9252C77.3466 13.9752 73.6188 17.0583 71.7765 20.9598C70.9768 22.6536 70.8559 23.3746 70.8559 26.4544C70.8559 29.6888 70.9491 30.184 71.9194 32.1061C73.2782 34.7977 75.8036 37.3242 78.5899 38.779C80.6331 39.846 81.0217 39.9237 84.3266 39.9244C87.5308 39.9247 88.076 39.8248 89.9984 38.8832C94.1045 36.8726 97.2485 32.6881 97.966 28.2786C98.6622 24.0017 96.9064 19.4624 93.291 16.1905C89.9765 13.1911 85.4188 11.9302 81.4907 12.9252ZM52.5996 15.2879C51.9059 15.9817 51.8906 16.4659 51.8959 37.7095C51.8991 49.6516 52.0186 59.5976 52.1618 59.812C52.4762 60.2832 53.8187 61.0173 54.365 61.0173C54.5816 61.0173 55.1502 60.6256 55.6287 60.147L56.499 59.2771V37.6989V16.1206L55.6787 15.3496C54.655 14.3882 53.522 14.3655 52.5996 15.2879ZM85.8825 17.383C86.2759 17.6322 85.9378 18.5156 84.1986 21.7819C83.0019 24.0297 82.0224 26.1882 82.0224 26.5788C82.0224 27.945 83.5421 28.6505 87.4248 29.0865C89.4252 29.3113 91.5075 29.6083 92.052 29.7473L93.0418 29.9993L91.9907 31.652C91.3498 32.6601 90.2721 33.697 89.2285 34.3106C87.7113 35.2025 87.1753 35.3167 84.5038 35.3167C81.1216 35.3167 79.6012 34.7701 77.743 32.8856C76.0772 31.1971 75.5434 29.8944 75.3604 27.0712C75.0953 22.9843 76.5799 19.9998 79.6742 18.4007C81.8916 17.2543 84.9005 16.7612 85.8825 17.383ZM92.6341 22.2306C93.0368 23.0871 93.3661 24.1215 93.3661 24.5292C93.3661 25.1453 93.202 25.2392 92.3913 25.0875C91.8553 24.9868 90.6532 24.8043 89.7202 24.6812L88.0243 24.4576L89.3472 22.008C90.578 19.7294 90.7131 19.5975 91.2863 20.1161C91.6249 20.4227 92.2314 21.3742 92.6341 22.2306ZM43.9146 28.8277C43.5246 29.0489 43.0883 29.4031 42.945 29.6147C42.8018 29.8263 42.6848 36.6194 42.6848 44.7107C42.6848 52.802 42.8018 59.5976 42.945 59.812C43.2595 60.2832 44.6019 61.0173 45.1482 61.0173C45.3648 61.0173 45.9334 60.6256 46.412 60.147L47.2822 59.2771V44.7107V30.1443L46.412 29.2744C45.4516 28.3141 44.972 28.2283 43.9146 28.8277ZM25.3261 33.4634C24.8192 33.7186 24.3374 34.3805 24.1602 35.0646C23.9943 35.7059 23.9046 41.5029 23.9606 47.9465L24.0631 59.6628L24.9 60.3399C25.9592 61.1974 26.7756 61.197 27.8345 60.3395L28.6714 59.6621V47.0589C28.6714 36.3174 28.5927 34.3808 28.1397 33.9494C27.3169 33.166 26.274 32.9856 25.3261 33.4634ZM34.8718 38.0459C34.3972 38.2214 33.8871 38.5567 33.7385 38.7907C33.5897 39.0247 33.4656 43.873 33.4624 49.5648C33.4571 59.8599 33.4613 59.9166 34.2451 60.4654C35.3554 61.2431 36.1895 61.1531 37.1952 60.147L38.0655 59.2771V49.4141C38.0655 41.3119 37.9726 39.4182 37.5447 38.8074C36.8992 37.886 35.9981 37.6294 34.8718 38.0459ZM15.3326 47.7771C14.9796 48.2021 14.8151 49.8487 14.7328 53.7949C14.6201 59.1995 14.624 59.2321 15.5145 60.1222C16.5443 61.1524 17.3727 61.2477 18.4894 60.4654C19.2487 59.9336 19.2774 59.7046 19.2774 54.1395C19.2774 48.9958 19.2065 48.3014 18.6291 47.7788C17.7956 47.0245 15.9594 47.0234 15.3326 47.7771ZM70.8761 47.9802C70.0984 49.0905 70.1884 49.9246 71.1945 50.9303L72.0644 51.8005H84.2316C97.8625 51.8005 97.9745 51.7817 97.9745 49.5017C97.9745 47.1461 98.2503 47.1922 84.144 47.1922H71.4277L70.8761 47.9802ZM70.8761 57.197C70.0984 58.3072 70.1884 59.1413 71.1945 60.147L72.0644 61.0173H84.2316C97.8625 61.0173 97.9745 60.9985 97.9745 58.7184C97.9745 56.3628 98.2503 56.4089 84.144 56.4089H71.4277L70.8761 57.197ZM35.427 80.2389C34.6138 81.3995 34.7527 82.4935 35.8198 83.3329C36.7574 84.0702 36.9194 84.0752 56.9407 83.9791C76.4445 83.8852 77.1336 83.859 77.62 83.1939C78.3176 82.2393 78.2485 80.738 77.4746 80.0375C76.8872 79.5058 74.9099 79.4509 56.4026 79.4509H35.9786L35.427 80.2389Z" fill="#535353"/>
</svg>
