<svg width="144" height="90" viewBox="0 0 144 90" fill="none" xmlns="http://www.w3.org/2000/svg">
<path fill-rule="evenodd" clip-rule="evenodd" d="M22.4022 0.935471C22.154 1.21769 21.9505 1.66323 21.9505 1.92593C21.9505 2.18863 21.6253 2.63779 21.2278 2.92434C20.8303 3.21089 20.5051 3.69871 20.5051 4.00839C20.5051 4.31806 20.1799 4.80588 19.7824 5.09243C19.3849 5.37898 19.0597 5.86681 19.0597 6.17648C19.0597 6.48616 18.7345 6.97398 18.337 7.26053C17.9395 7.54708 17.6143 8.0349 17.6143 8.34458C17.6143 8.65425 17.2891 9.14208 16.8916 9.42863C16.4941 9.71518 16.1689 10.2388 16.1689 10.5925C16.1689 10.9459 16.0063 11.2354 15.8076 11.2354C15.6088 11.2354 15.4462 11.5248 15.4462 11.8782C15.4462 12.232 15.121 12.7556 14.7235 13.0421C14.3261 13.3287 14.0008 13.8165 14.0008 14.1262C14.0008 14.4358 13.6756 14.9237 13.2781 15.2102C12.8807 15.4968 12.5554 15.9846 12.5554 16.2943C12.5554 16.6039 12.2302 17.0918 11.8327 17.3783C11.4353 17.6649 11.11 18.1527 11.11 18.4624C11.11 18.772 10.7848 19.2599 10.3873 19.5464C9.98986 19.833 9.66464 20.3208 9.66464 20.6305C9.66464 20.9401 9.33943 21.428 8.94195 21.7145C8.54446 22.0011 8.21925 22.4889 8.21925 22.7986C8.21925 23.1082 7.89403 23.5961 7.49655 23.8826C7.09906 24.1692 6.77385 24.657 6.77385 24.9666C6.77385 25.2763 6.44864 25.7641 6.05115 26.0507C5.65367 26.3372 5.32845 26.8251 5.32845 27.1347C5.32845 27.4444 5.00324 27.9322 4.60575 28.2188C4.20827 28.5053 3.88306 28.9932 3.88306 29.3028C3.88306 29.6125 3.55784 30.1003 3.16036 30.3869C2.76287 30.6734 2.43766 31.1613 2.43766 31.4709C2.43766 31.7806 2.11244 32.2684 1.71496 32.555C1.31747 32.8415 0.99226 33.3651 0.99226 33.7189C0.99226 34.0723 0.829653 34.3617 0.630911 34.3617C0.432169 34.3617 0.269562 34.7737 0.269562 35.277C0.269562 36.2104 2.38888 38.6979 3.18384 38.6979C3.40896 38.6979 4.04891 39.1857 4.60575 39.782C5.16259 40.3782 5.84265 40.866 6.11619 40.866C6.3901 40.866 6.84865 41.1912 7.1352 41.5887C7.42175 41.9862 7.8803 42.3114 8.1542 42.3114C8.42775 42.3114 9.10781 42.7992 9.66464 43.3955C10.2215 43.9917 10.9015 44.4795 11.1751 44.4795C11.449 44.4795 11.9075 44.8047 12.1941 45.2022C12.4806 45.5997 12.9392 45.9249 13.2131 45.9249C13.4866 45.9249 14.1667 46.4127 14.7235 47.009C15.2804 47.6052 15.9604 48.093 16.234 48.093C16.5079 48.093 16.9664 48.4182 17.253 48.8157C17.5395 49.2132 17.9981 49.5384 18.272 49.5384C18.5455 49.5384 19.2256 50.0262 19.7824 50.6225C20.3393 51.2187 21.0193 51.7065 21.2929 51.7065C21.5668 51.7065 22.0253 52.0317 22.3119 52.4292C22.5984 52.8267 23.057 53.1519 23.3309 53.1519C23.6044 53.1519 24.2845 53.6397 24.8413 54.236C25.3982 54.8322 26.0399 55.32 26.2676 55.32C26.8757 55.32 28.4548 57.0039 28.4548 57.6525C28.4548 57.9597 28.2922 58.2108 28.0935 58.2108C27.8926 58.2108 27.7321 59.1745 27.7321 60.3789C27.7321 61.5833 27.8926 62.547 28.0935 62.547C28.2922 62.547 28.4548 62.8722 28.4548 63.2697C28.4548 63.6672 28.6174 63.9924 28.8162 63.9924C29.0149 63.9924 29.1775 64.2435 29.1775 64.5507C29.1775 65.2336 30.7707 66.8832 31.4302 66.8832C31.6932 66.8832 32.1431 67.2084 32.4297 67.6059C32.7162 68.0034 33.2398 68.3286 33.5936 68.3286C33.947 68.3286 34.2364 68.4912 34.2364 68.6899C34.2364 68.8887 34.5616 69.0513 34.9591 69.0513C35.4408 69.0513 35.6818 69.2923 35.6818 69.774C35.6818 70.1715 35.8444 70.4967 36.0431 70.4967C36.2419 70.4967 36.4045 70.9068 36.4045 71.408C36.4045 72.0302 37.0322 72.947 38.384 74.2988L40.3638 76.2783H43.0815C45.4462 76.2783 45.7996 76.3617 45.7996 76.9211C45.7996 77.2749 46.1248 77.7985 46.5223 78.085C46.9198 78.3716 47.245 78.8254 47.245 79.0939C47.245 79.723 48.1364 80.6145 48.7655 80.6145C49.034 80.6145 49.4879 80.9397 49.7744 81.3372C50.2254 81.963 50.71 82.0599 53.3879 82.0599C56.0659 82.0599 56.5504 82.1567 57.0014 82.7826C57.288 83.18 57.8116 83.5052 58.1653 83.5052C58.5187 83.5052 58.8082 83.6679 58.8082 83.8666C58.8082 84.0653 59.1334 84.228 59.5309 84.228C59.9283 84.228 60.2536 84.3905 60.2536 84.5893C60.2536 84.788 60.5788 84.9506 60.9762 84.9506C61.3737 84.9506 61.699 85.1133 61.699 85.312C61.699 85.5183 62.783 85.6733 64.2284 85.6733C65.6738 85.6733 66.7578 85.5183 66.7578 85.312C66.7578 85.1133 67.0133 84.9506 67.3255 84.9506C68.0558 84.9506 68.9259 84.0805 68.9259 83.3502C68.9259 83.038 69.0885 82.7826 69.2873 82.7826C69.486 82.7826 69.6486 82.4573 69.6486 82.0599C69.6486 81.5782 69.8897 81.3372 70.3713 81.3372C70.7688 81.3372 71.094 81.4998 71.094 81.6985C71.094 81.8972 71.3835 82.0599 71.7369 82.0599C72.0906 82.0599 72.6142 82.3851 72.9008 82.7826C73.1873 83.18 73.6751 83.5052 73.9848 83.5052C74.2945 83.5052 74.7823 83.8305 75.0689 84.228C75.3749 84.6522 76.0044 84.9506 76.5941 84.9506C77.1463 84.9506 77.5983 85.1133 77.5983 85.312C77.5983 85.5107 78.0861 85.6733 78.6824 85.6733C79.2786 85.6733 79.7664 85.836 79.7664 86.0347C79.7664 86.2334 80.5795 86.396 81.5732 86.396C82.5669 86.396 83.3799 86.2334 83.3799 86.0347C83.3799 85.836 83.7919 85.6733 84.2952 85.6733C85.3131 85.6733 87.7161 83.5244 87.7161 82.6138C87.7161 82.1777 88.1768 82.0599 89.8842 82.0599C91.0886 82.0599 92.0523 81.8994 92.0523 81.6985C92.0523 81.4998 92.5043 81.3372 93.0565 81.3372C93.6462 81.3372 94.2757 81.0387 94.5817 80.6145C94.8683 80.217 95.3221 79.8918 95.5906 79.8918C96.2523 79.8918 97.1112 78.988 97.1112 78.2913C97.1112 77.9791 97.2738 77.7237 97.4725 77.7237C97.6713 77.7237 97.8339 77.3984 97.8339 77.001C97.8339 76.6035 97.9965 76.2783 98.1952 76.2783C98.394 76.2783 98.5566 75.953 98.5566 75.5556C98.5566 74.9532 98.7976 74.8329 100.002 74.8329C100.797 74.8329 101.447 74.6703 101.447 74.4715C101.447 74.2728 101.899 74.1102 102.452 74.1102C103.041 74.1102 103.671 73.8117 103.977 73.3875C104.263 72.99 104.717 72.6648 104.986 72.6648C105.254 72.6648 105.706 72.4324 105.99 72.1484C106.274 71.8647 106.506 71.4127 106.506 71.1442C106.506 70.8757 106.831 70.4219 107.229 70.1353C107.653 69.8293 107.952 69.1998 107.952 68.6101C107.952 68.0579 108.114 67.6059 108.313 67.6059C108.512 67.6059 108.674 67.2807 108.674 66.8832C108.674 66.257 108.915 66.1605 110.481 66.1605C111.475 66.1605 112.288 65.9979 112.288 65.7991C112.288 65.6004 112.613 65.4378 113.011 65.4378C113.408 65.4378 113.733 65.2752 113.733 65.0764C113.733 64.8777 113.984 64.7151 114.292 64.7151C114.599 64.7151 115.249 64.3158 115.737 63.828C116.225 63.3401 116.624 62.6897 116.624 62.3826C116.624 62.0754 116.787 61.8243 116.985 61.8243C117.184 61.8243 117.347 61.3365 117.347 60.7402C117.347 60.144 117.509 59.6562 117.708 59.6562C117.907 59.6562 118.069 58.8432 118.069 57.8494C118.069 56.2837 118.166 56.0427 118.792 56.0427C119.19 56.0427 119.515 55.8801 119.515 55.6813C119.515 55.4826 119.84 55.32 120.238 55.32C120.635 55.32 120.96 55.1574 120.96 54.9586C120.96 54.7599 121.285 54.5973 121.683 54.5973C122.08 54.5973 122.406 54.4347 122.406 54.236C122.406 54.0372 122.731 53.8746 123.128 53.8746C123.526 53.8746 123.851 53.712 123.851 53.5133C123.851 53.3145 124.176 53.1519 124.574 53.1519C124.971 53.1519 125.296 52.9893 125.296 52.7906C125.296 52.5918 125.622 52.4292 126.019 52.4292C126.417 52.4292 126.742 52.2666 126.742 52.0679C126.742 51.8691 127.067 51.7065 127.465 51.7065C127.862 51.7065 128.187 51.5439 128.187 51.3452C128.187 51.1464 128.512 50.9838 128.91 50.9838C129.307 50.9838 129.633 50.8212 129.633 50.6225C129.633 50.4237 129.958 50.2611 130.355 50.2611C130.753 50.2611 131.078 50.0985 131.078 49.8998C131.078 49.701 131.403 49.5384 131.801 49.5384C132.198 49.5384 132.523 49.3758 132.523 49.1771C132.523 48.9783 132.849 48.8157 133.246 48.8157C133.644 48.8157 133.969 48.6531 133.969 48.4544C133.969 48.2556 134.294 48.093 134.692 48.093C135.089 48.093 135.414 47.9304 135.414 47.7317C135.414 47.5329 135.739 47.3703 136.137 47.3703C136.534 47.3703 136.86 47.2077 136.86 47.009C136.86 46.8102 137.185 46.6476 137.582 46.6476C137.98 46.6476 138.305 46.485 138.305 46.2863C138.305 46.0875 138.63 45.9249 139.028 45.9249C139.425 45.9249 139.75 45.7623 139.75 45.5636C139.75 45.3648 140.076 45.2022 140.473 45.2022C140.871 45.2022 141.196 45.0396 141.196 44.8409C141.196 44.6421 141.521 44.4795 141.919 44.4795C142.4 44.4795 142.641 44.2385 142.641 43.7568C142.641 43.3593 142.804 43.0341 143.003 43.0341C143.201 43.0341 143.364 42.7089 143.364 42.3114C143.364 41.9139 143.201 41.5887 143.003 41.5887C142.804 41.5887 142.641 41.2635 142.641 40.866C142.641 40.4685 142.479 40.1433 142.28 40.1433C142.081 40.1433 141.919 39.6555 141.919 39.0593C141.919 38.463 141.756 37.9752 141.557 37.9752C141.358 37.9752 141.196 37.4874 141.196 36.8912C141.196 36.295 141.033 35.8071 140.834 35.8071C140.636 35.8071 140.473 35.3193 140.473 34.7231C140.473 34.1269 140.311 33.639 140.112 33.639C139.913 33.639 139.75 33.3138 139.75 32.9163C139.75 32.5189 139.588 32.1936 139.389 32.1936C139.19 32.1936 139.028 31.7058 139.028 31.1096C139.028 30.5134 138.865 30.0255 138.666 30.0255C138.468 30.0255 138.305 29.5377 138.305 28.9415C138.305 28.3453 138.142 27.8574 137.944 27.8574C137.745 27.8574 137.582 27.3696 137.582 26.7734C137.582 26.1772 137.42 25.6893 137.221 25.6893C137.022 25.6893 136.86 25.3641 136.86 24.9666C136.86 24.5692 136.697 24.2439 136.498 24.2439C136.3 24.2439 136.137 23.7561 136.137 23.1599C136.137 22.5637 135.974 22.0759 135.776 22.0759C135.577 22.0759 135.414 21.588 135.414 20.9918C135.414 20.3956 135.252 19.9078 135.053 19.9078C134.854 19.9078 134.692 19.4199 134.692 18.8237C134.692 18.2275 134.529 17.7397 134.33 17.7397C134.131 17.7397 133.969 17.4144 133.969 17.017C133.969 16.6195 133.806 16.2943 133.607 16.2943C133.409 16.2943 133.246 15.8064 133.246 15.2102C133.246 14.614 133.084 14.1262 132.885 14.1262C132.686 14.1262 132.523 13.6383 132.523 13.0421C132.523 12.4459 132.361 11.9581 132.162 11.9581C131.963 11.9581 131.801 11.4703 131.801 10.874C131.801 10.2778 131.638 9.78998 131.439 9.78998C131.241 9.78998 131.078 9.46476 131.078 9.06728C131.078 8.66979 130.915 8.34458 130.717 8.34458C130.518 8.34458 130.355 7.85676 130.355 7.26053C130.355 6.6643 130.193 6.17648 129.994 6.17648C129.795 6.17648 129.633 5.68866 129.633 5.09243C129.633 4.24941 129.472 4.00839 128.91 4.00839C128.512 4.00839 128.187 3.84578 128.187 3.64704C128.187 3.44829 127.862 3.28569 127.465 3.28569C127.067 3.28569 126.742 3.44829 126.742 3.64704C126.742 3.84578 126.254 4.00839 125.658 4.00839C125.062 4.00839 124.574 4.17099 124.574 4.36974C124.574 4.56848 124.249 4.73108 123.851 4.73108C123.454 4.73108 123.128 4.89369 123.128 5.09243C123.128 5.29118 122.641 5.45378 122.044 5.45378C121.448 5.45378 120.96 5.61639 120.96 5.81513C120.96 6.01388 120.472 6.17648 119.876 6.17648C119.28 6.17648 118.792 6.33909 118.792 6.53783C118.792 6.73657 118.467 6.89918 118.069 6.89918C117.672 6.89918 117.347 7.06179 117.347 7.26053C117.347 7.45927 116.859 7.62188 116.263 7.62188C115.666 7.62188 115.179 7.78449 115.179 7.98323C115.179 8.18197 114.853 8.34458 114.456 8.34458C114.058 8.34458 113.733 8.50719 113.733 8.70593C113.733 8.90467 113.245 9.06728 112.649 9.06728C112.053 9.06728 111.565 9.22988 111.565 9.42863C111.565 9.62737 111.24 9.78998 110.842 9.78998C110.445 9.78998 110.12 9.95258 110.12 10.1513C110.12 10.3501 109.632 10.5127 109.036 10.5127C108.439 10.5127 107.952 10.6753 107.952 10.874C107.952 11.0728 107.626 11.2354 107.229 11.2354C106.831 11.2354 106.506 11.398 106.506 11.5967C106.506 11.7955 106.018 11.9581 105.422 11.9581C104.826 11.9581 104.338 12.1207 104.338 12.3194C104.338 12.5182 104.026 12.6808 103.645 12.6808C103.265 12.6808 102.858 12.8842 102.742 13.1325C102.574 13.4938 102.489 13.4938 102.321 13.1325C102.205 12.8842 101.798 12.6808 101.417 12.6808C101.037 12.6808 100.725 12.5182 100.725 12.3194C100.725 12.1207 100.399 11.9581 100.002 11.9581C99.6045 11.9581 99.2793 11.7955 99.2793 11.5967C99.2793 11.398 98.9541 11.2354 98.5566 11.2354C98.1591 11.2354 97.8339 11.0728 97.8339 10.874C97.8339 10.6753 97.5087 10.5127 97.1112 10.5127C96.7137 10.5127 96.3885 10.3501 96.3885 10.1513C96.3885 9.95258 96.0633 9.78998 95.6658 9.78998C95.2683 9.78998 94.9431 9.62737 94.9431 9.42863C94.9431 9.22988 94.6537 9.06728 94.3003 9.06728C93.9465 9.06728 93.4229 8.74206 93.1363 8.34458C92.8498 7.94709 92.3262 7.62188 91.9724 7.62188C91.619 7.62188 91.3296 7.45927 91.3296 7.26053C91.3296 7.06179 91.0044 6.89918 90.6069 6.89918C90.2094 6.89918 89.8842 6.73657 89.8842 6.53783C89.8842 6.33909 89.559 6.17648 89.1615 6.17648C88.764 6.17648 88.4388 6.01388 88.4388 5.81513C88.4388 5.61639 88.1136 5.45378 87.7161 5.45378C87.3186 5.45378 86.9934 5.29118 86.9934 5.09243C86.9934 4.89369 86.5056 4.73108 85.9094 4.73108C85.3131 4.73108 84.8253 4.56848 84.8253 4.36974C84.8253 4.17099 84.5001 4.00839 84.1026 4.00839C83.7051 4.00839 83.3799 3.84578 83.3799 3.64704C83.3799 3.44829 83.0547 3.28569 82.6572 3.28569C82.2597 3.28569 81.9345 3.12308 81.9345 2.92434C81.9345 2.7256 81.6093 2.56299 81.2118 2.56299C80.8143 2.56299 80.4891 2.40038 80.4891 2.20164C80.4891 2.0029 79.8387 1.84029 79.0437 1.84029C78.2487 1.84029 77.5983 1.67768 77.5983 1.47894C77.5983 1.26213 76.1529 1.11759 73.9848 1.11759C71.8167 1.11759 70.3713 1.26213 70.3713 1.47894C70.3713 1.67768 69.7209 1.84029 68.9259 1.84029C68.131 1.84029 67.4805 2.0029 67.4805 2.20164C67.4805 2.40038 66.9927 2.56299 66.3965 2.56299C65.8003 2.56299 65.3124 2.7256 65.3124 2.92434C65.3124 3.12525 64.3487 3.28569 63.1443 3.28569C61.94 3.28569 60.9762 3.44613 60.9762 3.64704C60.9762 3.84795 60.0125 4.00839 58.8082 4.00839C57.6038 4.00839 56.6401 4.16882 56.6401 4.36974C56.6401 4.56848 55.827 4.73108 54.8333 4.73108C53.8396 4.73108 53.0266 4.89369 53.0266 5.09243C53.0266 5.29118 52.3761 5.45378 51.5812 5.45378C50.7862 5.45378 50.1358 5.61639 50.1358 5.81513C50.1358 6.01388 49.6479 6.17648 49.0517 6.17648C48.4555 6.17648 47.9677 6.33909 47.9677 6.53783C47.9677 6.73657 47.4799 6.89918 46.8836 6.89918C46.2874 6.89918 45.7996 7.06179 45.7996 7.26053C45.7996 7.45927 45.3118 7.62188 44.7155 7.62188C44.1193 7.62188 43.6315 7.78449 43.6315 7.98323C43.6315 8.18197 43.1437 8.34458 42.5474 8.34458C41.9512 8.34458 41.4634 8.50719 41.4634 8.70593C41.4634 8.90467 41.1519 9.06728 40.7707 9.06728C40.3898 9.06728 39.9833 9.27072 39.8673 9.51896C39.6989 9.88031 39.6144 9.88031 39.446 9.51896C39.33 9.27072 38.9235 9.06728 38.5426 9.06728C38.1614 9.06728 37.8499 8.90467 37.8499 8.70593C37.8499 8.50719 37.5605 8.34458 37.2071 8.34458C36.8533 8.34458 36.3297 8.01936 36.0431 7.62188C35.7566 7.2244 35.233 6.89918 34.8792 6.89918C34.5258 6.89918 34.2364 6.73657 34.2364 6.53783C34.2364 6.33909 33.947 6.17648 33.5936 6.17648C33.2398 6.17648 32.7162 5.85127 32.4297 5.45378C32.1431 5.0563 31.6195 4.73108 31.2657 4.73108C30.9123 4.73108 30.6229 4.56848 30.6229 4.36974C30.6229 4.17099 30.3335 4.00839 29.9801 4.00839C29.6263 4.00839 29.1027 3.68317 28.8162 3.28569C28.5296 2.8882 28.0711 2.56299 27.7972 2.56299C27.5236 2.56299 26.8436 2.07517 26.2867 1.47894C25.1665 0.279622 23.2196 0.00716496 22.4022 0.935471ZM77.5983 5.81513C77.5983 6.01388 77.9235 6.17648 78.321 6.17648C78.7185 6.17648 79.0437 6.33909 79.0437 6.53783C79.0437 6.73657 79.5315 6.89918 80.1278 6.89918C80.724 6.89918 81.2118 7.06179 81.2118 7.26053C81.2118 7.45927 81.537 7.62188 81.9345 7.62188C82.332 7.62188 82.6572 7.78449 82.6572 7.98323C82.6572 8.18197 82.9824 8.34458 83.3799 8.34458C83.7774 8.34458 84.1026 8.50719 84.1026 8.70593C84.1026 8.90467 84.4278 9.06728 84.8253 9.06728C85.2228 9.06728 85.548 9.22988 85.548 9.42863C85.548 9.62737 85.8732 9.78998 86.2707 9.78998C86.6682 9.78998 86.9934 9.95258 86.9934 10.1513C86.9934 10.3501 87.3186 10.5127 87.7161 10.5127C88.1136 10.5127 88.4388 10.6753 88.4388 10.874C88.4388 11.0728 88.764 11.2354 89.1615 11.2354C89.559 11.2354 89.8842 11.398 89.8842 11.5967C89.8842 11.7955 90.2094 11.9581 90.6069 11.9581C91.0044 11.9581 91.3296 12.1207 91.3296 12.3194C91.3296 12.5182 91.6548 12.6808 92.0523 12.6808C92.4498 12.6808 92.775 12.8434 92.775 13.0421C92.775 13.2409 93.1002 13.4035 93.4977 13.4035C93.8952 13.4035 94.2204 13.5661 94.2204 13.7648C94.2204 13.9636 94.5456 14.1262 94.9431 14.1262C95.3406 14.1262 95.6658 14.2888 95.6658 14.4875C95.6658 14.6863 95.9552 14.8489 96.3086 14.8489C96.6624 14.8489 97.186 15.1741 97.4725 15.5716C97.7591 15.9691 98.2827 16.2943 98.6364 16.2943C98.9898 16.2943 99.2793 16.4569 99.2793 16.6556C99.2793 16.8544 99.6045 17.017 100.002 17.017C100.399 17.017 100.725 17.1796 100.725 17.3783C100.725 17.5771 101.213 17.7397 101.809 17.7397C102.405 17.7397 102.893 17.5771 102.893 17.3783C102.893 17.1796 103.381 17.017 103.977 17.017C104.573 17.017 105.061 16.8544 105.061 16.6556C105.061 16.4569 105.549 16.2943 106.145 16.2943C106.741 16.2943 107.229 16.1317 107.229 15.9329C107.229 15.7342 107.554 15.5716 107.952 15.5716C108.349 15.5716 108.674 15.409 108.674 15.2102C108.674 15.0115 109.162 14.8489 109.758 14.8489C110.355 14.8489 110.842 14.6863 110.842 14.4875C110.842 14.2888 111.168 14.1262 111.565 14.1262C111.963 14.1262 112.288 13.9636 112.288 13.7648C112.288 13.5661 112.776 13.4035 113.372 13.4035C113.968 13.4035 114.456 13.2409 114.456 13.0421C114.456 12.8434 114.781 12.6808 115.179 12.6808C115.576 12.6808 115.901 12.5182 115.901 12.3194C115.901 12.1207 116.389 11.9581 116.985 11.9581C117.582 11.9581 118.069 11.7955 118.069 11.5967C118.069 11.398 118.395 11.2354 118.792 11.2354C119.19 11.2354 119.515 11.0728 119.515 10.874C119.515 10.6753 120.003 10.5127 120.599 10.5127C121.195 10.5127 121.683 10.3501 121.683 10.1513C121.683 9.95258 122.008 9.78998 122.406 9.78998C122.803 9.78998 123.128 9.62737 123.128 9.42863C123.128 9.22988 123.603 9.06728 124.182 9.06728C124.762 9.06728 125.303 8.86564 125.386 8.61884C125.634 7.87374 126.742 9.25193 126.742 10.3063C126.742 10.8173 126.904 11.2354 127.103 11.2354C127.302 11.2354 127.465 11.7232 127.465 12.3194C127.465 12.9156 127.627 13.4035 127.826 13.4035C128.025 13.4035 128.187 13.7287 128.187 14.1262C128.187 14.5237 128.35 14.8489 128.549 14.8489C128.747 14.8489 128.91 15.3367 128.91 15.9329C128.91 16.5291 129.073 17.017 129.271 17.017C129.47 17.017 129.633 17.5048 129.633 18.101C129.633 18.6972 129.795 19.1851 129.994 19.1851C130.193 19.1851 130.355 19.5103 130.355 19.9078C130.355 20.3052 130.518 20.6305 130.717 20.6305C130.915 20.6305 131.078 21.1183 131.078 21.7145C131.078 22.3107 131.241 22.7986 131.439 22.7986C131.638 22.7986 131.801 23.2864 131.801 23.8826C131.801 24.4788 131.963 24.9666 132.162 24.9666C132.361 24.9666 132.523 25.2919 132.523 25.6893C132.523 26.0868 132.686 26.412 132.885 26.412C133.084 26.412 133.246 26.8999 133.246 27.4961C133.246 28.0923 133.409 28.5801 133.607 28.5801C133.806 28.5801 133.969 29.068 133.969 29.6642C133.969 30.2604 134.131 30.7482 134.33 30.7482C134.529 30.7482 134.692 31.0735 134.692 31.4709C134.692 31.8684 134.854 32.1936 135.053 32.1936C135.252 32.1936 135.414 32.6815 135.414 33.2777C135.414 33.8739 135.577 34.3617 135.776 34.3617C135.974 34.3617 136.137 34.8496 136.137 35.4458C136.137 36.042 136.3 36.5298 136.498 36.5298C136.697 36.5298 136.86 36.855 136.86 37.2525C136.86 37.65 137.022 37.9752 137.221 37.9752C137.42 37.9752 137.582 38.463 137.582 39.0593C137.582 39.6555 137.745 40.1433 137.944 40.1433C138.142 40.1433 138.305 40.4685 138.305 40.866C138.305 41.3477 138.064 41.5887 137.582 41.5887C137.185 41.5887 136.86 41.7513 136.86 41.9501C136.86 42.1488 136.534 42.3114 136.137 42.3114C135.739 42.3114 135.414 42.474 135.414 42.6728C135.414 42.8715 135.089 43.0341 134.692 43.0341C134.294 43.0341 133.969 43.1967 133.969 43.3955C133.969 43.5942 133.644 43.7568 133.246 43.7568C132.849 43.7568 132.523 43.9194 132.523 44.1182C132.523 44.3169 132.198 44.4795 131.801 44.4795C131.403 44.4795 131.078 44.6421 131.078 44.8409C131.078 45.0396 130.753 45.2022 130.355 45.2022C129.958 45.2022 129.633 45.3648 129.633 45.5636C129.633 45.7623 129.307 45.9249 128.91 45.9249C128.512 45.9249 128.187 46.0875 128.187 46.2863C128.187 46.485 127.862 46.6476 127.465 46.6476C127.067 46.6476 126.742 46.8102 126.742 47.009C126.742 47.2077 126.417 47.3703 126.019 47.3703C125.622 47.3703 125.296 47.5329 125.296 47.7317C125.296 47.9304 124.971 48.093 124.574 48.093C124.176 48.093 123.851 48.2556 123.851 48.4544C123.851 48.6531 123.526 48.8157 123.128 48.8157C122.731 48.8157 122.406 48.9783 122.406 49.1771C122.406 49.3758 122.08 49.5384 121.683 49.5384C121.285 49.5384 120.96 49.701 120.96 49.8998C120.96 50.0985 120.635 50.2611 120.238 50.2611C119.84 50.2611 119.515 50.4237 119.515 50.6225C119.515 50.8212 119.19 50.9838 118.792 50.9838C118.395 50.9838 118.069 51.1464 118.069 51.3452C118.069 51.5439 117.744 51.7065 117.347 51.7065C116.949 51.7065 116.624 51.8691 116.624 52.0679C116.624 52.2666 116.215 52.4292 115.715 52.4292C115.011 52.4292 112.936 50.557 106.506 44.1182C100.076 37.6793 98.0019 35.8071 97.2976 35.8071C96.7975 35.8071 96.3885 35.6445 96.3885 35.4458C96.3885 35.247 96.0633 35.0844 95.6658 35.0844C95.2683 35.0844 94.9431 34.9218 94.9431 34.7231C94.9431 34.5243 94.6179 34.3617 94.2204 34.3617C93.8229 34.3617 93.4977 34.1991 93.4977 34.0004C93.4977 33.8016 93.1725 33.639 92.775 33.639C92.3775 33.639 92.0523 33.4764 92.0523 33.2777C92.0523 33.0789 91.7629 32.9163 91.4095 32.9163C91.0557 32.9163 90.5321 32.5911 90.2456 32.1936C89.959 31.7962 89.5004 31.4709 89.2265 31.4709C88.953 31.4709 88.2729 30.9831 87.7161 30.3869C87.1593 29.7907 86.5175 29.3028 86.2899 29.3028C86.0626 29.3028 85.4775 28.9035 84.9897 28.4157C84.5019 27.9279 84.1026 27.3429 84.1026 27.1156C84.1026 26.8879 83.6148 26.2462 83.0186 25.6893C82.4223 25.1325 81.9345 24.4167 81.9345 24.099C81.9345 23.7811 81.7719 23.5213 81.5732 23.5213C81.3744 23.5213 81.2118 23.196 81.2118 22.7986C81.2118 22.4011 81.0492 22.0759 80.8505 22.0759C80.6517 22.0759 80.4891 21.588 80.4891 20.9918C80.4891 20.3956 80.3265 19.9078 80.1278 19.9078C79.929 19.9078 79.7664 19.4897 79.7664 18.9787C79.7664 17.3653 79.0332 17.017 75.6366 17.017C73.8128 17.017 72.5394 17.1655 72.5394 17.3783C72.5394 17.5771 71.7264 17.7397 70.7327 17.7397C69.739 17.7397 68.9259 17.9023 68.9259 18.101C68.9259 18.2998 68.6661 18.4624 68.3481 18.4624C68.0305 18.4624 67.3147 18.9502 66.7578 19.5464C66.201 20.1426 65.521 20.6305 65.2474 20.6305C64.9735 20.6305 64.5149 20.9557 64.2284 21.3532C63.9418 21.7506 63.4183 22.0759 63.0645 22.0759C62.7111 22.0759 62.4216 22.2385 62.4216 22.4372C62.4216 22.6359 62.0964 22.7986 61.699 22.7986C61.3015 22.7986 60.9762 22.9612 60.9762 23.1599C60.9762 23.3586 60.4884 23.5213 59.8922 23.5213C59.296 23.5213 58.8082 23.6839 58.8082 23.8826C58.8082 24.0868 57.779 24.2439 56.4431 24.2439C54.4134 24.2439 53.952 24.1182 53.191 23.3568C52.3172 22.4835 51.9602 20.6305 52.6652 20.6305C52.864 20.6305 53.0266 20.341 53.0266 19.9876C53.0266 19.6339 53.3518 19.1103 53.7493 18.8237C54.1467 18.5372 54.472 18.0927 54.472 17.8358C54.472 17.2714 61.1638 10.5127 61.7228 10.5127C61.9396 10.5127 62.7418 9.86225 63.5057 9.06728C64.2696 8.27231 65.1509 7.62188 65.4649 7.62188C65.7786 7.62188 66.0351 7.45927 66.0351 7.26053C66.0351 7.06179 66.523 6.89918 67.1192 6.89918C67.7154 6.89918 68.2032 6.73657 68.2032 6.53783C68.2032 6.33909 68.8537 6.17648 69.6486 6.17648C70.4436 6.17648 71.094 6.01388 71.094 5.81513C71.094 5.60085 72.4191 5.45378 74.3462 5.45378C76.2733 5.45378 77.5983 5.60085 77.5983 5.81513ZM26.6481 6.89918C26.9346 7.29667 27.4224 7.62188 27.7321 7.62188C28.0418 7.62188 28.5296 7.94709 28.8162 8.34458C29.1027 8.74206 29.5905 9.06728 29.9002 9.06728C30.2099 9.06728 30.6977 9.39249 30.9843 9.78998C31.2708 10.1875 31.7944 10.5127 32.1482 10.5127C32.5016 10.5127 32.791 10.6753 32.791 10.874C32.791 11.0728 33.1162 11.2354 33.5137 11.2354C33.9112 11.2354 34.2364 11.398 34.2364 11.5967C34.2364 11.7955 34.5616 11.9581 34.9591 11.9581C35.3566 11.9581 35.6818 12.1207 35.6818 12.3194C35.6818 12.5182 36.007 12.6808 36.4045 12.6808C36.802 12.6808 37.1272 12.8434 37.1272 13.0421C37.1272 13.2409 37.4524 13.4035 37.8499 13.4035C38.2474 13.4035 38.5726 13.5661 38.5726 13.7648C38.5726 13.9636 39.223 14.1262 40.018 14.1262C40.813 14.1262 41.4634 13.9636 41.4634 13.7648C41.4634 13.5661 41.7886 13.4035 42.1861 13.4035C42.5836 13.4035 42.9088 13.2409 42.9088 13.0421C42.9088 12.8434 43.234 12.6808 43.6315 12.6808C44.029 12.6808 44.3542 12.5182 44.3542 12.3194C44.3542 12.1207 44.842 11.9581 45.4382 11.9581C46.0345 11.9581 46.5223 11.7955 46.5223 11.5967C46.5223 11.398 47.0101 11.2354 47.6063 11.2354C48.2026 11.2354 48.6904 11.0728 48.6904 10.874C48.6904 10.6753 49.1782 10.5127 49.7744 10.5127C50.3706 10.5127 50.8585 10.3501 50.8585 10.1513C50.8585 9.95258 51.5089 9.78998 52.3039 9.78998C53.0988 9.78998 53.7493 9.62737 53.7493 9.42863C53.7493 9.22988 54.3997 9.06728 55.1947 9.06728C55.9896 9.06728 56.6401 9.15472 56.6401 9.26168C56.6401 9.369 55.1766 10.9073 53.3879 12.6808C51.5992 14.4543 50.1358 16.1551 50.1358 16.4612C50.1358 16.7669 49.9732 17.017 49.7744 17.017C49.5757 17.017 49.4131 17.3422 49.4131 17.7397C49.4131 18.1371 49.2505 18.4624 49.0517 18.4624C48.853 18.4624 48.6904 18.7876 48.6904 19.1851C48.6904 19.5825 48.5278 19.9078 48.329 19.9078C48.1281 19.9078 47.9677 20.8715 47.9677 22.0759C47.9677 23.2802 48.1281 24.2439 48.329 24.2439C48.5278 24.2439 48.6904 24.4951 48.6904 24.8022C48.6904 25.1094 49.0897 25.7598 49.5775 26.2476C50.0653 26.7355 50.7157 27.1347 51.0229 27.1347C51.33 27.1347 51.5812 27.2974 51.5812 27.4961C51.5812 27.6948 51.9064 27.8574 52.3039 27.8574C52.7014 27.8574 53.0266 28.0201 53.0266 28.2188C53.0266 28.4331 54.3516 28.5801 56.2787 28.5801C58.2058 28.5801 59.5309 28.4331 59.5309 28.2188C59.5309 28.0201 60.0187 27.8574 60.6149 27.8574C61.2111 27.8574 61.699 27.6948 61.699 27.4961C61.699 27.2974 62.0242 27.1347 62.4216 27.1347C62.8191 27.1347 63.1443 26.9721 63.1443 26.7734C63.1443 26.5747 63.4696 26.412 63.867 26.412C64.2645 26.412 64.5897 26.2494 64.5897 26.0507C64.5897 25.852 64.915 25.6893 65.3124 25.6893C65.7099 25.6893 66.0351 25.5267 66.0351 25.328C66.0351 25.1293 66.295 24.9666 66.6129 24.9666C66.9306 24.9666 67.6464 24.4788 68.2032 23.8826C68.7601 23.2864 69.4759 22.7986 69.7935 22.7986C70.1115 22.7986 70.3713 22.6359 70.3713 22.4372C70.3713 22.2385 71.0218 22.0759 71.8167 22.0759C72.6117 22.0759 73.2621 21.9132 73.2621 21.7145C73.2621 21.5158 73.9126 21.3532 74.7075 21.3532C75.9119 21.3532 76.1529 21.4735 76.1529 22.0759C76.1529 22.4733 76.3155 22.7986 76.5143 22.7986C76.713 22.7986 76.8756 23.2864 76.8756 23.8826C76.8756 24.4788 77.0382 24.9666 77.237 24.9666C77.4357 24.9666 77.5983 25.2561 77.5983 25.6095C77.5983 25.9633 77.9235 26.4868 78.321 26.7734C78.7185 27.0599 79.0437 27.5048 79.0437 27.7617C79.0437 28.3713 85.0342 34.3617 85.6438 34.3617C85.9007 34.3617 86.3455 34.6869 86.6321 35.0844C86.9186 35.4819 87.4064 35.8071 87.7161 35.8071C88.0258 35.8071 88.5136 36.1323 88.8001 36.5298C89.0867 36.9273 89.6103 37.2525 89.9641 37.2525C90.3175 37.2525 90.6069 37.4151 90.6069 37.6139C90.6069 37.8126 90.9321 37.9752 91.3296 37.9752C91.7271 37.9752 92.0523 38.1378 92.0523 38.3366C92.0523 38.5353 92.5401 38.6979 93.1363 38.6979C93.7326 38.6979 94.2204 38.8605 94.2204 39.0593C94.2204 39.258 94.5456 39.4206 94.9431 39.4206C95.3406 39.4206 95.6658 39.5832 95.6658 39.782C95.6658 39.9807 95.9104 40.1433 96.2096 40.1433C96.5088 40.1433 100.574 43.9639 105.243 48.6332C111.804 55.1935 113.733 57.3287 113.733 58.0283C113.733 58.5262 113.571 58.9335 113.372 58.9335C113.173 58.9335 113.011 59.1846 113.011 59.4918C113.011 59.7989 112.611 60.4494 112.123 60.9372C111.413 61.6483 110.869 61.8243 109.385 61.8243C107.697 61.8243 107.411 61.6964 106.145 60.3789C105.381 59.5839 104.575 58.9335 104.353 58.9335C104.131 58.9335 102.498 57.47 100.725 55.6813C98.9512 53.8927 97.3244 52.4292 97.1097 52.4292C96.8947 52.4292 95.432 51.1283 93.859 49.5384C91.502 47.156 90.8013 46.6476 89.8737 46.6476C88.4435 46.6476 87.7161 47.3754 87.7161 48.8063C87.7161 49.9232 89.047 51.7065 89.8802 51.7065C90.0952 51.7065 91.8853 53.3326 93.859 55.32C95.8327 57.3074 97.6178 58.9335 97.8263 58.9335C98.0348 58.9335 99.5854 60.3135 101.272 61.9999C103.493 64.2211 104.338 65.3164 104.338 65.9747C104.338 66.4745 104.176 66.8832 103.977 66.8832C103.778 66.8832 103.615 67.1343 103.615 67.4415C103.615 67.7486 103.216 68.399 102.728 68.8869C102.241 69.3747 101.59 69.774 101.283 69.774C100.976 69.774 100.725 69.9366 100.725 70.1353C100.725 70.3341 100.145 70.4967 99.4365 70.4967C98.3661 70.4967 97.8505 70.191 96.3885 68.6899C95.4204 67.6962 94.452 66.8832 94.2359 66.8832C94.0198 66.8832 91.2483 64.2815 88.0775 61.1016C83.1118 56.1218 82.1571 55.32 81.1941 55.32C79.7726 55.32 79.0437 56.0496 79.0437 57.4718C79.0437 58.3156 79.4416 58.9891 80.6604 60.2076C81.5493 61.0969 82.4451 61.8243 82.6503 61.8243C83.269 61.8243 95.1173 73.8713 94.6515 74.0267C94.4144 74.1058 94.2204 74.4083 94.2204 74.6988C94.2204 75.3977 92.5961 77.001 91.8879 77.001C91.5807 77.001 91.3296 77.1636 91.3296 77.3623C91.3296 77.5611 90.9126 77.7237 90.4027 77.7237C89.766 77.7237 88.9248 77.1581 87.7161 75.9169C86.748 74.9232 85.7785 74.1102 85.5617 74.1102C85.3446 74.1102 83.0619 71.9963 80.4891 69.4126C77.9163 66.829 75.5628 64.7151 75.2593 64.7151C74.9558 64.7151 74.7075 64.5525 74.7075 64.3537C74.7075 63.6914 73.6018 63.9815 72.7038 64.8795C71.8059 65.7775 71.5157 66.8832 72.1781 66.8832C72.3768 66.8832 72.5394 67.1325 72.5394 67.4371C72.5394 68.0583 74.8369 70.4967 75.4219 70.4967C75.6293 70.4967 77.6673 72.3649 79.9511 74.6482C83.6686 78.3661 84.1026 78.9327 84.1026 80.0685C84.1026 81.0961 83.9653 81.3372 83.3799 81.3372C82.9824 81.3372 82.6572 81.4998 82.6572 81.6985C82.6572 81.8972 82.1694 82.0599 81.5732 82.0599C80.9769 82.0599 80.4891 81.8972 80.4891 81.6985C80.4891 81.4998 80.0013 81.3372 79.4051 81.3372C78.8088 81.3372 78.321 81.1746 78.321 80.9758C78.321 80.7771 78.0316 80.6145 77.6782 80.6145C77.3244 80.6145 76.8008 80.2892 76.5143 79.8918C76.2277 79.4943 75.7399 79.1691 75.4302 79.1691C75.1205 79.1691 74.6327 78.8438 74.3462 78.4464C74.0596 78.0489 73.6119 77.7237 73.351 77.7237C72.6923 77.7237 70.3713 75.3406 70.3713 74.6641C70.3713 74.3595 70.5339 74.1102 70.7327 74.1102C70.9434 74.1102 71.094 72.9058 71.094 71.2194C71.094 69.533 70.9434 68.3286 70.7327 68.3286C70.5339 68.3286 70.3713 68.0034 70.3713 67.6059C70.3713 67.2084 70.2087 66.8832 70.01 66.8832C69.8112 66.8832 69.6486 66.6349 69.6486 66.3318C69.6486 65.7113 66.6252 62.547 66.0326 62.547C65.5307 62.547 63.1443 60.1549 63.1443 59.6519C63.1443 59.0621 61.4474 57.4881 60.8118 57.4881C60.5047 57.4881 60.2536 57.3255 60.2536 57.1267C60.2536 56.928 59.9283 56.7654 59.5309 56.7654C59.1334 56.7654 58.8082 56.6028 58.8082 56.404C58.8082 56.2031 57.8444 56.0427 56.6401 56.0427C54.5623 56.0427 54.472 56.0048 54.472 55.1299C54.472 54.5304 53.9166 53.6618 52.8553 52.6005L51.239 50.9838H48.5191C46.9469 50.9838 45.7996 51.1363 45.7996 51.3452C45.7996 51.5439 45.4744 51.7065 45.0769 51.7065C44.6794 51.7065 44.3542 51.8691 44.3542 52.0679C44.3542 52.8715 42.443 52.3938 41.4634 51.3452C40.9065 50.7489 40.1907 50.2611 39.8731 50.2611C39.5551 50.2611 39.2953 50.0985 39.2953 49.8998C39.2953 49.6945 38.238 49.5384 36.8457 49.5384C34.8106 49.5384 34.3079 49.6605 33.875 50.2611C33.5885 50.6586 33.1007 50.9838 32.791 50.9838C32.4813 50.9838 31.9935 51.309 31.707 51.7065C31.0367 52.6363 29.4865 52.6363 28.8162 51.7065C28.5296 51.309 28.0711 50.9838 27.7972 50.9838C27.5236 50.9838 26.8436 50.496 26.2867 49.8998C25.7299 49.3035 25.0498 48.8157 24.7763 48.8157C24.5024 48.8157 24.0438 48.4905 23.7573 48.093C23.4707 47.6955 23.0122 47.3703 22.7383 47.3703C22.4647 47.3703 21.7847 46.8825 21.2278 46.2863C20.671 45.69 19.9909 45.2022 19.7174 45.2022C19.4435 45.2022 18.9849 44.877 18.6984 44.4795C18.4118 44.082 17.9533 43.7568 17.6794 43.7568C17.4058 43.7568 16.7258 43.269 16.1689 42.6728C15.6121 42.0765 14.932 41.5887 14.6585 41.5887C14.3846 41.5887 13.926 41.2635 13.6395 40.866C13.3529 40.4685 12.8944 40.1433 12.6205 40.1433C12.3469 40.1433 11.6669 39.6555 11.11 39.0593C10.5532 38.463 9.87314 37.9752 9.5996 37.9752C9.3257 37.9752 8.86715 37.65 8.5806 37.2525C8.29405 36.855 7.84417 36.5298 7.5811 36.5298C7.31768 36.5298 6.68785 36.1154 6.18088 35.6084L5.25943 34.6869L6.01682 34.0304C6.4331 33.669 6.77385 33.144 6.77385 32.8632C6.77385 32.5828 7.09906 32.1188 7.49655 31.8323C7.89403 31.5457 8.21925 31.0579 8.21925 30.7482C8.21925 30.4386 8.54446 29.9507 8.94195 29.6642C9.33943 29.3776 9.66464 28.8898 9.66464 28.5801C9.66464 28.2705 9.98986 27.7826 10.3873 27.4961C10.7848 27.2095 11.11 26.7217 11.11 26.412C11.11 26.1024 11.4353 25.6145 11.8327 25.328C12.2302 25.0414 12.5554 24.5179 12.5554 24.1641C12.5554 23.8107 12.718 23.5213 12.9168 23.5213C13.1155 23.5213 13.2781 23.2318 13.2781 22.8784C13.2781 22.5246 13.6034 22.0011 14.0008 21.7145C14.3983 21.428 14.7235 20.9401 14.7235 20.6305C14.7235 20.3208 15.0487 19.833 15.4462 19.5464C15.8437 19.2599 16.1689 18.772 16.1689 18.4624C16.1689 18.1527 16.4941 17.6649 16.8916 17.3783C17.2891 17.0918 17.6143 16.6039 17.6143 16.2943C17.6143 15.9846 17.9395 15.4968 18.337 15.2102C18.7345 14.9237 19.0597 14.4358 19.0597 14.1262C19.0597 13.8165 19.3849 13.3287 19.7824 13.0421C20.1799 12.7556 20.5051 12.2677 20.5051 11.9581C20.5051 11.6484 20.8303 11.1606 21.2278 10.874C21.6253 10.5875 21.9505 10.0997 21.9505 9.78998C21.9505 9.4803 22.2757 8.99248 22.6732 8.70593C23.0707 8.41938 23.3959 7.97022 23.3959 7.70752C23.3959 6.23394 25.7476 5.64963 26.6481 6.89918ZM38.7789 54.391C39.5197 55.1317 39.4149 56.5197 38.5726 57.1267C38.1751 57.4133 37.8499 57.9369 37.8499 58.2907C37.8499 58.6441 37.6873 58.9335 37.4885 58.9335C37.2898 58.9335 37.1272 59.2587 37.1272 59.6562C37.1272 60.0537 36.9646 60.3789 36.7658 60.3789C36.5671 60.3789 36.4045 60.7041 36.4045 61.1016C36.4045 61.4991 36.2419 61.8243 36.0431 61.8243C35.8444 61.8243 35.6818 62.3121 35.6818 62.9083C35.6818 64.3711 34.8962 64.3151 33.3211 62.7396C32.3643 61.7831 32.0683 61.1854 32.0683 60.2101C32.0683 59.508 32.2309 58.9335 32.4297 58.9335C32.6284 58.9335 32.791 58.6083 32.791 58.2108C32.791 57.8133 32.9536 57.4881 33.1524 57.4881C33.3511 57.4881 33.5137 57.2395 33.5137 56.936C33.5137 56.6321 34.0424 55.8302 34.6881 55.1538C35.9803 53.8009 37.8419 53.4536 38.7789 54.391ZM50.1358 56.0427C50.1358 56.4402 50.2984 56.7654 50.4971 56.7654C51.1649 56.7654 50.8805 58.7582 50.1358 59.2948C49.7383 59.5814 49.4131 60.0692 49.4131 60.3789C49.4131 60.6886 49.0879 61.1764 48.6904 61.4629C48.2929 61.7495 47.9677 62.2373 47.9677 62.547C47.9677 62.8567 47.6425 63.3445 47.245 63.631C46.8475 63.9176 46.5223 64.4412 46.5223 64.7949C46.5223 65.1483 46.3597 65.4378 46.1609 65.4378C45.9622 65.4378 45.7996 65.9256 45.7996 66.5218C45.7996 67.1181 45.637 67.6059 45.4382 67.6059C45.2395 67.6059 45.0769 68.3492 45.0769 69.2576C45.0769 71.2082 44.4839 71.9421 42.9088 71.9421C41.6802 71.9421 40.7407 71.2486 40.7407 70.3417C40.7407 70.0295 40.5781 69.774 40.3793 69.774C40.1806 69.774 40.018 69.1235 40.018 68.3286C40.018 67.5336 39.8554 66.8832 39.6566 66.8832C39.4579 66.8832 39.2953 66.558 39.2953 66.1605C39.2953 65.763 39.4579 65.4378 39.6566 65.4378C39.8554 65.4378 40.018 64.7874 40.018 63.9924C40.018 63.1974 40.1806 62.547 40.3793 62.547C40.5781 62.547 40.7407 62.2575 40.7407 61.9041C40.7407 61.5504 41.0659 61.0268 41.4634 60.7402C41.8609 60.4537 42.1861 60.0071 42.1861 59.7476C42.1861 59.0896 45.2984 56.0427 45.9709 56.0427C46.274 56.0427 46.5223 55.8801 46.5223 55.6813C46.5223 55.4826 47.3353 55.32 48.329 55.32C49.8948 55.32 50.1358 55.4165 50.1358 56.0427ZM58.6669 61.2888L59.5764 62.1983L58.1082 63.609C57.3006 64.3848 56.6401 65.2763 56.6401 65.5903C56.6401 65.9039 56.4775 66.1605 56.2787 66.1605C56.08 66.1605 55.9174 66.4857 55.9174 66.8832C55.9174 67.2807 55.7548 67.6059 55.556 67.6059C55.3573 67.6059 55.1947 68.0937 55.1947 68.6899C55.1947 69.2862 55.0321 69.774 54.8333 69.774C54.6143 69.774 54.472 71.3397 54.472 73.7488V77.7237H53.191C51.8211 77.7237 50.1358 76.4369 50.1358 75.3912C50.1358 75.084 49.9732 74.8329 49.7744 74.8329C49.5757 74.8329 49.4131 74.5077 49.4131 74.1102C49.4131 73.7127 49.2505 73.3875 49.0517 73.3875C48.853 73.3875 48.6904 72.8997 48.6904 72.3034C48.6904 71.7072 48.853 71.2194 49.0517 71.2194C49.2505 71.2194 49.4131 70.5689 49.4131 69.774C49.4131 68.979 49.5757 68.3286 49.7744 68.3286C49.9732 68.3286 50.1358 68.0034 50.1358 67.6059C50.1358 67.2084 50.2984 66.8832 50.4971 66.8832C50.6959 66.8832 50.8585 66.558 50.8585 66.1605C50.8585 65.763 51.0211 65.4378 51.2198 65.4378C51.4186 65.4378 51.5812 65.1483 51.5812 64.7949C51.5812 64.4412 51.9064 63.9176 52.3039 63.631C52.7014 63.3445 53.0266 62.8964 53.0266 62.6352C53.0266 62.3735 53.3923 61.769 53.8396 61.2913C55.0093 60.0425 57.4191 60.041 58.6669 61.2888ZM65.148 67.0476C65.6358 67.5354 66.0351 68.1858 66.0351 68.493C66.0351 68.8001 66.1977 69.0513 66.3965 69.0513C66.6028 69.0513 66.7578 70.1353 66.7578 71.5807C66.7578 73.0261 66.6028 74.1102 66.3965 74.1102C66.1837 74.1102 66.0351 75.3836 66.0351 77.2073C66.0351 79.4101 65.8859 80.454 65.5188 80.8208C64.9352 81.4047 62.4216 81.5301 62.4216 80.9758C62.4216 80.7771 62.1723 80.6145 61.8677 80.6145C61.5627 80.6145 60.7497 80.0508 60.061 79.3617C59.1041 78.4052 58.8082 77.8075 58.8082 76.8322C58.8082 76.1301 58.6455 75.5556 58.4468 75.5556C58.2481 75.5556 58.0855 75.2303 58.0855 74.8329C58.0855 74.4354 58.2481 74.1102 58.4468 74.1102C58.6477 74.1102 58.8082 73.1464 58.8082 71.9421C58.8082 70.7377 58.9686 69.774 59.1695 69.774C59.3682 69.774 59.5309 69.5254 59.5309 69.2218C59.5309 68.9179 60.0595 68.1161 60.7052 67.4397C62.1897 65.8855 63.8403 65.7395 65.148 67.0476Z" fill="#535353"/>
</svg>
