<?xml version="1.0" encoding="utf-8"?>
<!-- Generator: Adobe Illustrator 16.0.0, SVG Export Plug-In . SVG Version: 6.00 Build 0)  -->
<!DOCTYPE svg PUBLIC "-//W3C//DTD SVG 1.1//EN" "http://www.w3.org/Graphics/SVG/1.1/DTD/svg11.dtd">
<svg version="1.1" id="Layer_1" xmlns="http://www.w3.org/2000/svg" xmlns:xlink="http://www.w3.org/1999/xlink" x="0px" y="0px"
	 width="523px" height="198px" viewBox="0 0 523 198" enable-background="new 0 0 523 198" xml:space="preserve">
<g>
	<path fill-rule="evenodd" clip-rule="evenodd" d="M325.979,60.478c-6.656-10.132-13.99-17.899-25.446-20.152
		c-7.144-1.406-14.275-1.145-20.938,2.169c-6.669,3.317-11.162,8.425-11.551,16.204c-0.404,8.103,2.398,15.176,9.668,18.944
		c8.633,4.476,17.969,7.575,26.806,11.688c8.393,3.905,17.1,7.521,24.684,12.706c26.241,17.936,24.953,52.85-2.158,69.511
		c-29.011,17.829-68.186,8.772-84.179-19.521c-1.599-2.827-2.742-5.912-4.237-9.185c6.313-3.191,12.053-6.094,18.158-9.18
		c1.3,2.251,2.421,4.211,3.561,6.161c10.062,17.204,30.927,24.208,48.807,16.34c7.624-3.355,13.073-8.67,13.998-17.323
		c1.051-9.824-2.524-17.868-11.173-22.758c-6.453-3.647-13.531-6.178-20.259-9.358c-10.303-4.87-21.273-8.78-30.666-15.041
		c-21.381-14.252-23.1-46.609-0.76-62.954c25.438-18.612,67.091-12.478,82.953,21.985C337.572,53.92,331.87,57.145,325.979,60.478z"
		/>
	<path fill-rule="evenodd" clip-rule="evenodd" d="M422.411,176.99c0-2.18,0.001-4.143,0.001-6.105
		c-0.001-19.653,0.099-39.309-0.114-58.96c-0.03-2.779-0.981-5.946-2.525-8.25c-17.204-25.696-34.61-51.258-51.953-76.86
		c-1.079-1.592-2.09-3.23-3.584-5.547c8.832,0,16.772-0.181,24.69,0.16c1.49,0.064,3.27,1.954,4.273,3.436
		c12.499,18.437,24.876,36.957,37.295,55.449c1.097,1.635,2.265,3.222,3.874,5.505c1.553-2.16,2.803-3.803,3.952-5.514
		c12.328-18.352,24.72-36.663,36.878-55.128c2.007-3.047,4.139-4.14,7.696-4c6.921,0.272,13.859,0.08,21.777,0.08
		c-3.786,5.668-7.043,10.606-10.363,15.501C479.284,58.909,464.167,81,449.31,103.264c-1.713,2.565-2.804,6.062-2.843,9.145
		c-0.253,19.483-0.129,38.973-0.129,58.459c0,1.945,0,3.892,0,6.123C438.15,176.99,430.572,176.99,422.411,176.99z"/>
	<path fill-rule="evenodd" clip-rule="evenodd" d="M141.204,21.504c7.799,0,15.241,0,23.089,0c0,51.645,0,103.303,0,155.709
		c-7.065,0-14.142,0.065-21.213-0.102c-0.708-0.017-1.515-1.37-2.023-2.248c-0.292-0.504-0.083-1.303-0.083-1.968
		c0,8.564-0.009-43.328,0.012-148.828C140.984,23.409,141.093,22.75,141.204,21.504z"/>
	<path fill-rule="evenodd" clip-rule="evenodd" d="M216.158,177.046c-7.761,0-15.218,0-23.135,0c0-51.755,0-103.453,0-155.472
		c7.608,0,15.195,0,23.135,0C216.158,73.378,216.158,125.092,216.158,177.046z"/>
</g>
<path fill-rule="evenodd" clip-rule="evenodd" fill="#515151" d="M19.299,126.318c0-5.516,0-10.847,0-16.547
	c16.004-0.188,30.086,5.011,42.304,14.991c16.352,13.357,24.463,30.886,25.193,52.183c-5.678,0-11.159,0-16.864,0
	c-0.405-13.806-5.195-25.779-14.95-35.595C45.208,131.518,33.183,126.84,19.299,126.318z"/>
<path fill-rule="evenodd" clip-rule="evenodd" fill="#515151" d="M19.299,176.99c0-5.472-0.039-27.705-0.039-33.221
	c15.82-0.919,33.607,13.13,33.438,33.221"/>
<path fill-rule="evenodd" clip-rule="evenodd" fill="#515151" d="M19.26,91.783c0-5.517,0-10.848,0-16.548
	c16.004-0.187,49.664,9.802,67.012,27.15c25.841,25.841,32.895,52.957,33.625,74.254c-5.678,0-11.159,0-16.864,0
	c-0.405-13.805-7.83-42.113-23.382-57.666C58.993,98.316,33.144,92.304,19.26,91.783z"/>
</svg>
