<?xml version="1.0" encoding="utf-8"?>
<!-- Generator: Adobe Illustrator 16.0.0, SVG Export Plug-In . SVG Version: 6.00 Build 0)  -->
<!DOCTYPE svg PUBLIC "-//W3C//DTD SVG 1.1//EN" "http://www.w3.org/Graphics/SVG/1.1/DTD/svg11.dtd">
<svg version="1.1" id="Layer_1" xmlns="http://www.w3.org/2000/svg" xmlns:xlink="http://www.w3.org/1999/xlink" x="0px" y="0px"
	 width="575px" height="201px" viewBox="0 0 575 201" enable-background="new 0 0 575 201" xml:space="preserve">
<g>
	<path fill-rule="evenodd" clip-rule="evenodd" d="M374.979,61.478c-6.656-10.132-13.99-17.899-25.446-20.152
		c-7.144-1.406-14.275-1.145-20.938,2.169c-6.669,3.317-11.162,8.425-11.551,16.204c-0.404,8.103,2.398,15.176,9.668,18.944
		c8.633,4.476,17.969,7.575,26.806,11.688c8.393,3.905,17.1,7.521,24.684,12.706c26.241,17.936,24.953,52.85-2.158,69.511
		c-29.011,17.829-68.186,8.772-84.179-19.521c-1.599-2.827-2.742-5.912-4.237-9.185c6.313-3.191,12.053-6.094,18.158-9.18
		c1.3,2.251,2.421,4.211,3.561,6.161c10.062,17.204,30.927,24.208,48.807,16.34c7.624-3.355,13.073-8.67,13.998-17.323
		c1.051-9.824-2.524-17.868-11.173-22.758c-6.453-3.647-13.531-6.178-20.259-9.358c-10.303-4.87-21.273-8.78-30.666-15.041
		c-21.381-14.252-23.1-46.609-0.76-62.954c25.438-18.612,67.091-12.478,82.953,21.985C386.572,54.92,380.87,58.145,374.979,61.478z"
		/>
	<path fill-rule="evenodd" clip-rule="evenodd" d="M471.411,177.99c0-2.18,0.001-4.143,0.001-6.105
		c-0.001-19.653,0.099-39.309-0.114-58.96c-0.03-2.779-0.981-5.946-2.525-8.25c-17.204-25.696-34.61-51.258-51.953-76.86
		c-1.079-1.592-2.09-3.23-3.584-5.547c8.832,0,16.772-0.181,24.69,0.16c1.49,0.064,3.27,1.954,4.273,3.436
		c12.499,18.437,24.876,36.957,37.295,55.449c1.097,1.635,2.265,3.222,3.874,5.505c1.553-2.16,2.803-3.803,3.952-5.514
		c12.328-18.352,24.72-36.663,36.878-55.128c2.007-3.047,4.139-4.14,7.696-4c6.921,0.272,13.859,0.08,21.777,0.08
		c-3.786,5.668-7.043,10.606-10.363,15.501C528.284,59.909,513.167,82,498.31,104.264c-1.713,2.565-2.804,6.062-2.843,9.145
		c-0.253,19.483-0.129,38.973-0.129,58.459c0,1.945,0,3.892,0,6.123C487.15,177.99,479.572,177.99,471.411,177.99z"/>
	<path fill-rule="evenodd" clip-rule="evenodd" d="M190.204,22.504c7.799,0,15.241,0,23.089,0c0,51.645,0,103.303,0,155.709
		c-7.065,0-14.142,0.065-21.213-0.102c-0.708-0.017-1.515-1.37-2.023-2.248c-0.292-0.504-0.083-1.303-0.083-1.968
		c0-49.61,0.002-99.219,0.012-148.828C189.984,24.409,190.093,23.75,190.204,22.504z"/>
	<path fill-rule="evenodd" clip-rule="evenodd" d="M265.158,178.046c-7.761,0-15.218,0-23.135,0c0-51.755,0-103.453,0-155.472
		c7.608,0,15.195,0,23.135,0C265.158,74.378,265.158,126.092,265.158,178.046z"/>
	<path fill-rule="evenodd" clip-rule="evenodd" d="M89.619,66.569c-18.994,0.107-34.62,6.793-48.079,18.976
		c-6.066,5.493-14.318,3.766-15.439-3.549c-0.403-2.628,0.912-6.416,2.798-8.355c13.832-14.219,30.967-22.199,50.565-24.266
		c25.828-2.726,48.547,4.893,67.989,22.169c5.957,5.293,6.803,10.846,2.242,14.913c-3.69,3.291-8.591,3.303-12.572-0.388
		c-11.029-10.224-23.855-16.694-38.744-18.912C95.271,66.694,92.089,66.724,89.619,66.569z"/>
	<path fill-rule="evenodd" clip-rule="evenodd" d="M88.671,103.662c-10.415,0.067-19.535,3.532-27.108,10.714
		c-3.05,2.894-6.458,4.239-10.436,2.983c-6.265-1.977-7.758-9.546-3.053-14.627c14.957-16.153,43.483-21.897,63.527-12.234
		c6.203,2.99,11.921,7.187,17.389,11.438c4.763,3.704,5.04,9.308,1.52,13.086c-3.47,3.726-8.816,3.658-13.359-0.167
		C107.212,106.486,100.101,103.701,88.671,103.662z"/>
	<path fill-rule="evenodd" clip-rule="evenodd" d="M103.706,139.03c-0.054,7.658-7.035,14.638-14.64,14.637
		c-7.577-0.002-14.666-7.031-14.781-14.657c-0.117-7.758,7.152-14.905,15.016-14.765C97.066,124.383,103.761,131.254,103.706,139.03
		z"/>
</g>
</svg>
