<svg width="90" height="123" viewBox="0 0 90 123" fill="none" xmlns="http://www.w3.org/2000/svg">
<path fill-rule="evenodd" clip-rule="evenodd" d="M20.5128 0.442713C17.9344 1.23625 15.9002 3.06385 14.4787 5.86453L13.1025 8.57544V35.4326V62.2901L11.255 65.7493C10.2387 67.6523 7.63703 72.5435 5.47364 76.6192C3.30982 80.6949 1.28321 84.4055 0.969431 84.865C0.513802 85.5319 0.399048 89.2193 0.399048 103.179V120.658H2.51628H4.63352V103.814C4.63352 90.4109 4.74955 86.7997 5.20221 86.1353C5.51514 85.6759 7.07978 82.8227 8.67956 79.795C10.2789 76.7674 12.5477 72.4732 13.7211 70.2526C14.8949 68.0317 17.0867 63.8603 18.5925 60.983C20.9422 56.4919 21.5367 55.6645 22.7897 55.1411C24.876 54.2696 26.8247 54.7498 28.1268 56.4572C28.7133 57.2266 29.1892 58.2187 29.1841 58.6625C29.1791 59.1062 28.5071 62.7089 27.6911 66.6682C26.8751 70.6274 25.8359 75.8303 25.3824 78.23C24.9285 80.6301 24.4094 82.8214 24.2285 83.0996C24.0482 83.3782 23.8051 89.8159 23.6886 97.4062L23.4769 111.206L21.8632 113.635L20.2498 116.064L21.3555 117.514C21.9639 118.311 22.6262 118.964 22.8278 118.964C23.363 118.964 25.5467 116.077 26.6333 113.933C27.2325 112.751 27.6589 110.947 27.8092 108.957L28.0455 105.837H46.0437H64.0415L63.7764 109.278C63.4355 113.695 62.2901 115.791 59.3387 117.397C58.1831 118.026 56.8353 118.54 56.3428 118.54C55.5505 118.54 55.4472 118.784 55.4472 120.658C55.4472 122.625 55.5209 122.775 56.4897 122.775C57.0635 122.775 58.5553 122.392 59.8053 121.925C64.9295 120.007 67.6958 115.876 68.0532 109.604L68.2624 105.935L71.9117 105.745C75.0113 105.584 75.8798 105.365 77.6777 104.291C79.9699 102.921 81.8534 100.566 82.536 98.215C82.7748 97.3931 82.9675 92.1584 82.9687 86.4643L82.9713 76.1957H85.4819C87.1994 76.1957 88.2021 75.9857 88.6577 75.5305C89.2463 74.9419 89.323 72.2077 89.323 51.8475C89.323 25.5273 89.6317 27.4993 85.5094 27.4993H83.0267L82.8929 17.4424L82.7595 7.38555L81.5451 5.35767C80.8773 4.24231 79.7238 2.86653 78.9815 2.3008C75.84 -0.0954881 76.7504 -0.0281603 48.1563 0.0133376C33.3555 0.0349334 21.2259 0.223367 20.5128 0.442713ZM32.1576 8.83755C32.1576 12.4796 32.2994 13.6068 32.8228 14.1306C33.4038 14.7112 35.4719 14.7959 49.0955 14.7959C62.7191 14.7959 64.7872 14.7112 65.3681 14.1306C65.8915 13.6068 66.0334 12.4796 66.0334 8.83755V4.2097H69.8169C71.8977 4.2097 74.0674 4.38712 74.6387 4.60435C75.9713 5.11122 77.8353 6.97523 78.3421 8.30782C78.5594 8.87905 78.7368 13.4307 78.7368 18.4227V27.4993H60.3469C44.1937 27.4993 41.8766 27.5802 41.2918 28.1645C40.7036 28.7531 40.6265 31.4772 40.6265 51.7387C40.6265 72.4609 40.6934 74.7209 41.3273 75.4212C41.9858 76.1487 43.1397 76.1957 60.4028 76.1957H78.7774L78.6513 86.9665L78.5251 97.7373L77.2547 99.0725C74.7505 101.705 75.8201 101.603 50.8104 101.603H27.9231L27.9134 94.5098C27.9032 87.4463 27.9151 87.3587 30.728 73.207C33.8226 57.639 33.8471 57.1609 31.7117 54.2125C28.6311 49.9602 23.3194 49.2429 19.1938 52.5216L17.5487 53.8288L17.4314 31.8777C17.367 19.8044 17.4174 9.5011 17.5436 8.9811C17.8324 7.79037 20.1855 5.082 21.3364 4.61579C21.8149 4.42185 24.4453 4.2512 27.1821 4.23638L32.1576 4.2097V8.83755ZM61.7989 7.38555V10.5614H49.0955H36.3921V7.38555V4.2097H49.0955H61.7989V7.38555ZM85.0885 51.8475V71.9613H64.9748H44.861V51.8475V31.7338H64.9748H85.0885V51.8475ZM49.7607 36.6335C49.2183 37.1763 49.0955 38.4132 49.0955 43.343C49.0955 51.1814 48.6991 50.7889 56.6146 50.7889C61.4779 50.7889 62.7089 50.6657 63.2509 50.1237C63.7955 49.5787 63.9161 48.3265 63.9161 43.2215C63.9161 38.9349 63.7573 36.8257 63.408 36.4764C63.0587 36.127 60.9495 35.9682 56.6629 35.9682C51.5578 35.9682 50.3057 36.0889 49.7607 36.6335ZM68.1506 39.1441V42.32H70.2678H72.3851V39.1441V35.9682H70.2678H68.1506V39.1441ZM76.6196 39.1441V42.32H78.7368H80.854V39.1441V35.9682H78.7368H76.6196V39.1441ZM59.6817 43.3786V46.5544H56.5058H53.33V43.3786V40.2027H56.5058H59.6817V43.3786ZM68.1506 48.6717V50.7889H74.5023H80.854V48.6717V46.5544H74.5023H68.1506V48.6717ZM68.8158 53.5714C68.2734 54.1142 68.1506 55.3511 68.1506 60.2809C68.1506 68.1193 67.7543 67.7268 75.6698 67.7268C80.5331 67.7268 81.764 67.6036 82.306 67.0616C82.8489 66.5183 82.9713 65.2788 82.9713 60.3165C82.9713 55.3541 82.8489 54.1147 82.306 53.5714C81.3262 52.5919 69.7957 52.5919 68.8158 53.5714ZM49.0955 62.4337V67.7268H51.2127H53.33V62.4337V57.1406H51.2127H49.0955V62.4337ZM57.5644 59.2578V61.3751H60.7403H63.9161V59.2578V57.1406H60.7403H57.5644V59.2578ZM78.7368 60.3165V63.4923H75.5609H72.3851V60.3165V57.1406H75.5609H78.7368V60.3165ZM57.5644 65.6096V67.7268H60.7403H63.9161V65.6096V63.4923H60.7403H57.5644V65.6096ZM44.0996 82.9654C42.1861 83.7848 40.2315 85.609 39.3774 87.373C38.1722 89.8625 38.2671 92.15 39.6882 94.8702C40.6426 96.6974 41.2973 97.352 43.1245 98.3065C47.187 100.429 51.1983 99.4722 53.9025 95.7361C55.1012 94.0792 55.2355 93.5897 55.2355 90.8673C55.2355 88.1797 55.0978 87.661 54.0092 86.2374C52.0545 83.6819 50.633 82.8883 47.6879 82.7084C46.2495 82.6207 44.6349 82.7363 44.0996 82.9654ZM49.975 88.0197C51.9173 89.962 51.6044 92.9841 49.3148 94.3993C47.2827 95.6553 45.865 95.4927 44.1835 93.8111C42.5066 92.1343 42.3258 90.6006 43.5801 88.6976C45.1036 86.3864 48.0314 86.076 49.975 88.0197Z" fill="#535353"/>
</svg>
