<svg width="97" height="98" viewBox="0 0 97 98" fill="none" xmlns="http://www.w3.org/2000/svg">
<path fill-rule="evenodd" clip-rule="evenodd" d="M0.414307 17.1006V33.2443H16.3899H32.3655V17.1006V0.956787H16.3899H0.414307V17.1006ZM38.0831 3.64742V6.33804H40.6056H43.128V3.64742V0.956787H40.6056H38.0831V3.64742ZM54.2269 3.64742V6.33804H56.7493H59.2718V3.64742V0.956787H56.7493H54.2269V3.64742ZM64.9894 17.1006V33.2443H80.965H96.9406V17.1006V0.956787H80.965H64.9894V17.1006ZM27.3206 17.1006V27.8631H16.3899H5.45923V17.1006V6.33804H16.3899H27.3206V17.1006ZM43.4644 9.02867V11.7193H48.6774H53.8905V9.02867V6.33804H48.6774H43.4644V9.02867ZM91.8957 17.1006V27.8631H80.965H70.0343V17.1006V6.33804H80.965H91.8957V17.1006ZM11.1768 17.1006V22.4818H16.3899H21.603V17.1006V11.7193H16.3899H11.1768V17.1006ZM38.0831 25.1724V38.6256H35.3925H32.7018V41.3162V44.0068H35.3925H38.0831V49.3881V54.7693H40.6056H43.128V52.0787V49.3881H45.9868H48.8456V57.46V65.5319H46.155H43.4644V68.2225V70.9131H46.155H48.8456V73.6037V76.2944H51.3681H53.8905V70.9131V65.5319H56.5812H59.2718V62.8412V60.1506H56.5812H53.8905V54.7693V49.3881H59.44H64.9894V52.0787V54.7693H67.5118H70.0343V52.0787V49.3881H72.8931H75.7519V52.0787V54.7693H78.2743H80.7968V52.0787V49.3881H83.6556H86.5144V52.0787V54.7693H89.0369H91.5593V49.3881V44.0068H88.8687H86.1781V41.3162V38.6256H83.6556H81.1331V41.3162V44.0068H78.2743H75.4156V41.3162V38.6256H72.8931H70.3706V41.3162V44.0068H62.1306H53.8905V41.3162V38.6256H51.3681H48.8456V41.3162V44.0068H45.9868H43.128V35.935V27.8631H45.8186H48.5093V25.1724V22.4818H45.8186H43.128V17.1006V11.7193H40.6056H38.0831V25.1724ZM54.2269 14.4099V17.1006H56.7493H59.2718V14.4099V11.7193H56.7493H54.2269V14.4099ZM75.7519 17.1006V22.4818H80.965H86.1781V17.1006V11.7193H80.965H75.7519V17.1006ZM48.8456 19.7912V22.4818H51.3681H53.8905V19.7912V17.1006H51.3681H48.8456V19.7912ZM54.2269 25.1724V27.8631H56.7493H59.2718V25.1724V22.4818H56.7493H54.2269V25.1724ZM54.2269 35.935V38.6256H56.7493H59.2718V35.935V33.2443H56.7493H54.2269V35.935ZM11.1768 41.3162V44.0068H5.79556H0.414307V46.6975V49.3881H3.10493H5.79556V52.0787V54.7693H8.31803H10.8405V52.0787V49.3881H13.6993H16.5581V52.0787V54.7693H19.0805H21.603V52.0787V49.3881H24.4618H27.3206V52.0787V54.7693H29.843H32.3655V49.3881V44.0068H29.6749H26.9843V41.3162V38.6256H24.4618H21.9393V41.3162V44.0068H19.0805H16.2217V41.3162V38.6256H13.6993H11.1768V41.3162ZM91.8957 41.3162V44.0068H94.4181H96.9406V41.3162V38.6256H94.4181H91.8957V41.3162ZM11.1768 57.46V60.1506H13.6993H16.2217V57.46V54.7693H13.6993H11.1768V57.46ZM32.7018 57.46V60.1506H35.2243H37.7468V57.46V54.7693H35.2243H32.7018V57.46ZM70.3706 57.46V60.1506H72.8931H75.4156V57.46V54.7693H72.8931H70.3706V57.46ZM91.8957 57.46V60.1506H94.4181H96.9406V57.46V54.7693H94.4181H91.8957V57.46ZM38.0831 62.8412V65.5319H40.6056H43.128V62.8412V60.1506H40.6056H38.0831V62.8412ZM64.9894 62.8412V65.5319H67.5118H70.0343V62.8412V60.1506H67.5118H64.9894V62.8412ZM75.7519 62.8412V65.5319H78.2743H80.7968V62.8412V60.1506H78.2743H75.7519V62.8412ZM0.414307 81.6756V97.8194H16.3899H32.3655V81.6756V65.5319H16.3899H0.414307V81.6756ZM59.6081 68.2225V70.9131H62.1306H64.653V68.2225V65.5319H62.1306H59.6081V68.2225ZM81.1331 68.2225V70.9131H73.0613H64.9894V73.6037V76.2944H67.68H70.3706V78.985V81.6756H72.8931H75.4156V78.985V76.2944H78.2743H81.1331V78.985V81.6756H83.6556H86.1781V78.985V76.2944H91.5593H96.9406V73.6037V70.9131H91.5593H86.1781V68.2225V65.5319H83.6556H81.1331V68.2225ZM27.3206 81.6756V92.4381H16.3899H5.45923V81.6756V70.9131H16.3899H27.3206V81.6756ZM38.0831 73.6037V76.2944H40.6056H43.128V73.6037V70.9131H40.6056H38.0831V73.6037ZM11.1768 81.6756V87.0569H16.3899H21.603V81.6756V76.2944H16.3899H11.1768V81.6756ZM43.4644 78.985V81.6756H45.9868H48.5093V78.985V76.2944H45.9868H43.4644V78.985ZM38.0831 84.3663V87.0569H40.6056H43.128V84.3663V81.6756H40.6056H38.0831V84.3663ZM48.8456 84.3663V87.0569H51.3681H53.8905V84.3663V81.6756H51.3681H48.8456V84.3663ZM75.7519 84.3663V87.0569H78.2743H80.7968V84.3663V81.6756H78.2743H75.7519V84.3663ZM86.5144 84.3663V87.0569H89.0369H91.5593V84.3663V81.6756H89.0369H86.5144V84.3663ZM54.2269 89.7475V92.4381H64.8212H75.4156V89.7475V87.0569H64.8212H54.2269V89.7475ZM81.1331 89.7475V92.4381H83.6556H86.1781V89.7475V87.0569H83.6556H81.1331V89.7475ZM48.8456 95.1288V97.8194H51.3681H53.8905V95.1288V92.4381H51.3681H48.8456V95.1288ZM86.5144 95.1288V97.8194H89.0369H91.5593V95.1288V92.4381H89.0369H86.5144V95.1288Z" fill="#535353"/>
</svg>
