<svg width="97" height="99" viewBox="0 0 97 99" fill="none" xmlns="http://www.w3.org/2000/svg">
<path d="M40.2017 96.2723L24.3224 96.2723C24.3224 96.2723 15.2186 96.6744 8.73521 90.0867C2.25185 83.499 2.69272 73.2551 2.69272 73.2551L2.69272 57.2039" stroke="#535353" stroke-width="4"/>
<path d="M94.3399 58.7618L94.3399 74.6411C94.3399 74.6411 94.742 83.7449 88.1543 90.2283C81.5666 96.7117 71.3227 96.2708 71.3227 96.2708L55.2714 96.2708" stroke="#535353" stroke-width="4"/>
<path d="M56.8294 2.60974L72.7087 2.60974C72.7087 2.60974 81.8125 2.20769 88.2959 8.79537C94.7792 15.3831 94.3383 25.627 94.3383 25.627L94.3384 41.6782" stroke="#535353" stroke-width="4"/>
<path d="M2.69117 40.1202L2.69116 24.241C2.69116 24.241 2.28911 15.1371 8.87679 8.65378C15.4645 2.17043 25.7084 2.6113 25.7084 2.6113L41.7596 2.61129" stroke="#535353" stroke-width="4"/>
<path fill-rule="evenodd" clip-rule="evenodd" d="M14.417 26.4682V37.9282H25.7576H37.0981V26.4682V15.0083H25.7576H14.417V26.4682ZM41.1569 16.9183V18.8283H42.9475H44.7381V16.9183V15.0083H42.9475H41.1569V16.9183ZM52.6168 16.9183V18.8283H54.4074H56.198V16.9183V15.0083H54.4074H52.6168V16.9183ZM60.2568 26.4682V37.9282H71.5973H82.9379V26.4682V15.0083H71.5973H60.2568V26.4682ZM33.5169 26.4682V34.1082H25.7576H17.9982V26.4682V18.8283H25.7576H33.5169V26.4682ZM44.9768 20.7383V22.6483H48.6775H52.3781V20.7383V18.8283H48.6775H44.9768V20.7383ZM79.3567 26.4682V34.1082H71.5973H63.838V26.4682V18.8283H71.5973H79.3567V26.4682ZM22.057 26.4682V30.2882H25.7576H29.4582V26.4682V22.6483H25.7576H22.057V26.4682ZM41.1569 32.1982V41.7482H39.2469H37.3369V43.6582V45.5682H39.2469H41.1569V49.3881V53.2081H42.9475H44.7381V51.2981V49.3881H46.7675H48.7968V55.1181V60.8481H46.8868H44.9768V62.7581V64.6681H46.8868H48.7968V66.5781V68.488H50.5874H52.3781V64.6681V60.8481H54.288H56.198V58.9381V57.0281H54.288H52.3781V53.2081V49.3881H56.3174H60.2568V51.2981V53.2081H62.0474H63.838V51.2981V49.3881H65.8674H67.8967V51.2981V53.2081H69.6874H71.478V51.2981V49.3881H73.5073H75.5367V51.2981V53.2081H77.3273H79.1179V49.3881V45.5682H77.2079H75.2979V43.6582V41.7482H73.5073H71.7167V43.6582V45.5682H69.6874H67.658V43.6582V41.7482H65.8674H64.0768V43.6582V45.5682H58.2274H52.3781V43.6582V41.7482H50.5874H48.7968V43.6582V45.5682H46.7675H44.7381V39.8382V34.1082H46.6481H48.5581V32.1982V30.2882H46.6481H44.7381V26.4682V22.6483H42.9475H41.1569V32.1982ZM52.6168 24.5583V26.4682H54.4074H56.198V24.5583V22.6483H54.4074H52.6168V24.5583ZM67.8967 26.4682V30.2882H71.5973H75.2979V26.4682V22.6483H71.5973H67.8967V26.4682ZM48.7968 28.3782V30.2882H50.5874H52.3781V28.3782V26.4682H50.5874H48.7968V28.3782ZM52.6168 32.1982V34.1082H54.4074H56.198V32.1982V30.2882H54.4074H52.6168V32.1982ZM52.6168 39.8382V41.7482H54.4074H56.198V39.8382V37.9282H54.4074H52.6168V39.8382ZM22.057 43.6582V45.5682H18.237H14.417V47.4781V49.3881H16.327H18.237V51.2981V53.2081H20.0276H21.8182V51.2981V49.3881H23.8476H25.8769V51.2981V53.2081H27.6676H29.4582V51.2981V49.3881H31.4875H33.5169V51.2981V53.2081H35.3075H37.0981V49.3881V45.5682H35.1881H33.2782V43.6582V41.7482H31.4875H29.6969V43.6582V45.5682H27.6676H25.6382V43.6582V41.7482H23.8476H22.057V43.6582ZM79.3567 43.6582V45.5682H81.1473H82.9379V43.6582V41.7482H81.1473H79.3567V43.6582ZM22.057 55.1181V57.0281H23.8476H25.6382V55.1181V53.2081H23.8476H22.057V55.1181ZM37.3369 55.1181V57.0281H39.1275H40.9181V55.1181V53.2081H39.1275H37.3369V55.1181ZM64.0768 55.1181V57.0281H65.8674H67.658V55.1181V53.2081H65.8674H64.0768V55.1181ZM79.3567 55.1181V57.0281H81.1473H82.9379V55.1181V53.2081H81.1473H79.3567V55.1181ZM41.1569 58.9381V60.8481H42.9475H44.7381V58.9381V57.0281H42.9475H41.1569V58.9381ZM60.2568 58.9381V60.8481H62.0474H63.838V58.9381V57.0281H62.0474H60.2568V58.9381ZM67.8967 58.9381V60.8481H69.6874H71.478V58.9381V57.0281H69.6874H67.8967V58.9381ZM14.417 72.308V83.768H25.7576H37.0981V72.308V60.8481H25.7576H14.417V72.308ZM56.4368 62.7581V64.6681H58.2274H60.018V62.7581V60.8481H58.2274H56.4368V62.7581ZM71.7167 62.7581V64.6681H65.9867H60.2568V66.5781V68.488H62.1668H64.0768V70.398V72.308H65.8674H67.658V70.398V68.488H69.6874H71.7167V70.398V72.308H73.5073H75.2979V70.398V68.488H79.1179H82.9379V66.5781V64.6681H79.1179H75.2979V62.7581V60.8481H73.5073H71.7167V62.7581ZM33.5169 72.308V79.948H25.7576H17.9982V72.308V64.6681H25.7576H33.5169V72.308ZM41.1569 66.5781V68.488H42.9475H44.7381V66.5781V64.6681H42.9475H41.1569V66.5781ZM22.057 72.308V76.128H25.7576H29.4582V72.308V68.488H25.7576H22.057V72.308ZM44.9768 70.398V72.308H46.7675H48.5581V70.398V68.488H46.7675H44.9768V70.398ZM41.1569 74.218V76.128H42.9475H44.7381V74.218V72.308H42.9475H41.1569V74.218ZM48.7968 74.218V76.128H50.5874H52.3781V74.218V72.308H50.5874H48.7968V74.218ZM67.8967 74.218V76.128H69.6874H71.478V74.218V72.308H69.6874H67.8967V74.218ZM75.5367 74.218V76.128H77.3273H79.1179V74.218V72.308H77.3273H75.5367V74.218ZM52.6168 78.038V79.948H60.1374H67.658V78.038V76.128H60.1374H52.6168V78.038ZM71.7167 78.038V79.948H73.5073H75.2979V78.038V76.128H73.5073H71.7167V78.038ZM48.7968 81.858V83.768H50.5874H52.3781V81.858V79.948H50.5874H48.7968V81.858ZM75.5367 81.858V83.768H77.3273H79.1179V81.858V79.948H77.3273H75.5367V81.858Z" fill="#535353"/>
</svg>
